<?xml version="1.0" encoding="UTF-8" standalone="no"?>
<!-- Created with Inkscape (http://www.inkscape.org/) -->

<svg
   xmlns:dc="http://purl.org/dc/elements/1.1/"
   xmlns:cc="http://creativecommons.org/ns#"
   xmlns:rdf="http://www.w3.org/1999/02/22-rdf-syntax-ns#"
   xmlns:svg="http://www.w3.org/2000/svg"
   xmlns="http://www.w3.org/2000/svg"
   xmlns:sodipodi="http://sodipodi.sourceforge.net/DTD/sodipodi-0.dtd"
   xmlns:inkscape="http://www.inkscape.org/namespaces/inkscape"
   id="svg2"
   version="1.1"
   inkscape:version="0.91 r13725"
   xml:space="preserve"
   width="11in"
   height="8.5in"
   viewBox="0 0 990 765"
   sodipodi:docname="topoTest1_2.svg"><sodipodi:namedview
     pagecolor="#ffffff"
     bordercolor="#666666"
     borderopacity="1"
     objecttolerance="10"
     gridtolerance="10"
     guidetolerance="10"
     inkscape:pageopacity="0"
     inkscape:pageshadow="2"
     inkscape:window-width="640"
     inkscape:window-height="480"
     id="namedview4"
     showgrid="false"
     units="in"
     inkscape:zoom="0.30849673"
     inkscape:cx="495"
     inkscape:cy="382.5"
     inkscape:window-x="0"
     inkscape:window-y="0"
     inkscape:window-maximized="0"
     inkscape:current-layer="g10" /><metadata
     id="metadata8"><rdf:RDF><cc:Work
         rdf:about=""><dc:format>image/svg+xml</dc:format><dc:type
           rdf:resource="http://purl.org/dc/dcmitype/StillImage" /><dc:title></dc:title></cc:Work></rdf:RDF></metadata><defs
     id="defs6"><clipPath
       clipPathUnits="userSpaceOnUse"
       id="clipPath16"><path
         d="M 0,612 792,612 792,0 0,0 0,612 Z"
         id="path18"
         inkscape:connector-curvature="0" /></clipPath></defs><g
     id="g10"
     inkscape:groupmode="layer"
     inkscape:label="topoTest1_1"
     transform="matrix(1.25,0,0,-1.25,0,765)"><g
       id="g12"><g
         id="g14"
         clip-path="url(#clipPath16)"><g
           id="g20"
           transform="translate(715.4541,114.5244)"><path
             d="M 0,0 C 21.269,0.455 41.37,1.945 62.357,2.607 M -43.089,21.229 c 20.887,0.424 41.683,-0.065 62.558,0.865 M -51.893,42.438 C -66.74,41.96 -80.999,41.055 -95.913,39.829 m 94.92,3.022 c 14.968,0.296 29.347,1.114 43.84,1.819 m -43.84,-1.819 c -16.973,-0.336 -33.927,0.133 -50.9,-0.413 m -34.244,19.595 c -14.945,-1.094 -29.865,-2.449 -44.76,-4.068 m 141.254,6.64 C 26.423,65.18 42.004,66.179 58.02,66.77 M -38.713,64.187 C -55.115,63.95 -70.406,63.189 -86.137,62.033 m 47.424,2.154 c 16.359,-0.076 32.715,0.064 49.07,0.418 m -22.918,21.003 c -16.4,0.019 -32.755,0.062 -49.149,-0.679 m 0,0 c -15.263,-0.691 -30.193,-1.82 -46.202,-3.267 m 95.351,3.946 c 16.923,-0.019 32.899,0.806 48.883,1.61 m -144.234,-5.556 c -15.133,-1.367 -30.216,-3.082 -45.305,-4.863 m -20.212,19.159 c 15.209,1.597 30.391,3.561 44.927,5.136 m 92.024,5.99 c 16.698,-0.111 33.392,0.06 50.084,0.514 m -50.084,-0.514 c -16.474,-0.188 -31.778,-0.905 -47.439,-2.022 m 0,0 c -14.874,-1.061 -29.759,-2.363 -44.585,-3.968 m 188.531,8.621 C 44.387,109.176 29.198,108.21 13.606,107.598 m -59.314,20.763 c 15.166,0.084 30.331,0.169 45.496,0.255 m -198.339,-13.381 c 13.992,0.875 28.269,2.44 42.326,4.089 M 70.722,131.438 C 63.646,131.303 56.693,131.052 49.8,130.744 m 0,0 c -4.989,-0.223 -9.954,-0.469 -14.917,-0.719 m -80.591,-1.664 c -12.775,-0.304 -25.001,-0.927 -37.434,-1.803 m 82.93,2.058 c 11.946,0.251 23.528,0.827 35.095,1.409 m -118.025,-3.467 c -12.088,-0.853 -24.171,-1.921 -36.234,-3.084 m 0,0 c -11.858,-1.142 -24.263,-2.674 -36.849,-4.15 m 127.926,30.686 c -12.56,-0.008 -24.341,-0.318 -35.95,-0.881 m -153.042,-13.147 c -13.196,-0.109 -26.393,-0.068 -39.59,-0.199 m 125.402,7.867 c -9.296,-1.033 -18.841,-2.204 -28.469,-3.318 m -57.343,-4.35 c 9.767,0.081 19.792,0.656 29.904,1.518 m 196.29,12.802 c 12.018,0.407 23.746,1.069 35.573,1.636 M -187.387,137.5 c 9.13,0.777 18.32,1.776 27.439,2.832 m 61.018,6.439 c -10.864,-0.894 -21.713,-1.934 -32.549,-3.121 m 67.23,5.479 c -11.504,-0.558 -22.861,-1.36 -34.681,-2.358 m 70.631,3.239 c 12.402,-0.127 24.802,-0.03 37.202,0.292 m -13.259,21.103 c -12.5,-0.009 -25,-0.041 -37.5,-0.093 m -179.565,-13.925 c -12.648,0.009 -24.798,-0.065 -36.759,-0.187 m 0,0 c -12.451,-0.127 -24.709,-0.304 -37.128,-0.487 m 181.051,10.116 c -11.941,-1.099 -23.862,-2.399 -35.763,-3.903 m -35.253,-3.809 c 11.762,1.045 23.611,2.43 35.253,3.809 m 145.664,8.479 c 12.505,0.177 24.559,0.755 36.578,1.358 M -78.27,169.758 c -11.67,-0.763 -23.457,-1.756 -35.987,-2.929 m -107.164,-9.442 c 12.05,-0.009 24.156,0.666 36.148,1.73 m 143.417,12.195 c -12.498,-0.234 -24.409,-0.77 -36.414,-1.554 m 147.69,4.524 c -12.652,-0.268 -24.911,-0.903 -37.198,-1.519 m 42.824,23.054 C 64.351,195.691 53.979,195.268 43.681,194.77 M 9.458,193.192 c 11.555,0.4 22.849,1.029 34.223,1.578 m -71.374,-1.89 c 12.384,-0.13 24.768,-0.026 37.151,0.312 m -206.072,-13.523 c 11.566,0.774 23.308,1.998 34.948,3.334 m -71.79,-4.191 c -12.7,-0.042 -24.979,-0.162 -37.18,-0.315 m 37.18,0.315 c 12.288,-0.145 24.569,0.141 36.842,0.857 m 133.326,12.378 c -10.797,-0.51 -21.454,-1.241 -32.465,-2.145 m 68.06,2.978 c -12.441,0.001 -24.111,-0.29 -35.595,-0.833 m -207.348,-13.55 c -12.343,-0.155 -24.615,-0.346 -37.167,-0.527 m 179.661,8.912 c -10.896,-1.176 -22.154,-2.573 -33.524,-3.879 m 65.913,6.899 c -10.81,-0.865 -21.606,-1.872 -32.389,-3.02 m -76.048,13.791 c 6.062,0.295 12.188,0.733 18.344,1.274 m 60.443,6.67 c -7.594,-0.796 -15.383,-1.717 -23.272,-2.652 m -80.397,-5.703 c 8.296,-0.074 16.59,0.064 24.882,0.411 m -112.057,-1.383 c 9.714,0.134 19.218,0.279 28.663,0.416 m -28.663,-0.416 c -8.968,-0.109 -17.93,-0.466 -26.885,-1.071 m 174.819,5.476 c 6.581,0.724 13.142,1.5 19.638,2.27 m -80.397,-5.703 c -9.863,-0.018 -19.455,-0.084 -28.926,-0.18 m 182.394,12.729 c -8.482,-0.529 -17.001,-1.185 -25.792,-1.943 m 52.392,3.157 c -9.02,-0.255 -17.799,-0.666 -26.6,-1.214 m -110.242,-10.864 c 5.834,0.512 11.689,1.105 17.533,1.748 m -89.685,-3.613 c -9.927,-0.101 -19.729,-0.234 -29.586,-0.376 m 186.188,11.162 c -8.01,-0.676 -16.012,-1.426 -24.007,-2.251 m -47.919,15.972 c 8.735,0.918 17.459,1.954 26.06,2.973 m -51.967,-5.189 c 8.565,0.522 17.237,1.305 25.907,2.216 m 105.318,10.09 c -8.896,-0.473 -17.75,-1.092 -26.833,-1.831 M -226.54,221.697 c -9.603,-0.01 -18.93,-0.067 -28.135,-0.154 m 159.838,11.305 c -8.897,-0.706 -17.785,-1.509 -26.664,-2.407 m -216.727,-10.503 c -8.46,-0.471 -17.249,-1.108 -26.175,-1.8 m 242.902,12.303 c -8.372,-0.833 -16.998,-1.84 -25.761,-2.879 m -135.482,-6.357 c -9.286,-0.131 -18.599,-0.273 -28.088,-0.409 m 56.157,0.747 c -9.434,-0.088 -18.742,-0.207 -28.069,-0.338 m -107.17,-5.066 c 8.507,0.646 17.064,1.343 25.511,1.999 m 53.571,2.658 c -9.137,-0.072 -18.269,-0.359 -27.396,-0.858 m 111.688,1.759 c 9.108,-0.073 18.212,0.152 27.311,0.676 m -154.699,17.99 c -8.72,-0.629 -17.641,-1.35 -26.578,-2.055 m 53.595,3.594 c -6.623,-0.238 -13.526,-0.622 -20.609,-1.094 m 48.612,1.539 c -9.336,-0.017 -18.671,-0.145 -28.004,-0.382 m 138.901,2.66 c 8.635,0.726 17.328,1.654 25.966,2.644 m -65.676,-4.134 c -5.087,-0.008 -10.097,-0.028 -15.055,-0.058 m 27.918,0.109 c 8.794,0.146 17.785,0.676 26.847,1.439 m -159.509,-3.817 c -2.121,-0.142 -4.258,-0.29 -6.408,-0.445 m 126.207,2.772 c 4.287,-0.024 8.575,-0.007 12.863,0.051 m -192.384,-6.821 c 3.239,0.203 6.501,0.423 9.783,0.657 m 312.779,18.045 c -8.458,-0.609 -17.039,-1.333 -25.973,-2.154 m 0,0 c -4.791,-0.43 -9.578,-0.892 -14.364,-1.384 m -37.028,-4.26 c 8.576,0.983 17.093,2.022 25.441,2.981 m 52.457,4.855 c -0.178,-0.013 -0.355,-0.025 -0.533,-0.038 m -40.337,-3.538 c -3.816,-0.398 -7.684,-0.83 -11.587,-1.279 m -106.172,-7.173 c -9.548,-0.059 -18.905,-0.157 -28.214,-0.274 m 0,0 c -9.295,-0.118 -18.552,-0.255 -27.919,-0.393 m -98.55,-5.388 c 5.622,0.402 11.287,0.838 16.953,1.286 m 26.465,2.213 c -8.834,-0.425 -17.734,-1.008 -26.772,-1.777 m 54.288,2.621 c -6.991,-0.099 -13.978,-0.28 -20.995,-0.557 m 210.328,10.114 c 4.092,0.201 8.145,0.396 12.175,0.607 m -255.796,-12.785 c -5.562,-0.437 -11.111,-1.012 -16.646,-1.722 m 312.813,18.012 c 0.166,0.023 0.333,0.048 0.499,0.071 M -347.52,240.808 c -2.169,-0.086 -4.343,-0.182 -6.521,-0.287 m -43.418,-3.499 c -3.007,-0.391 -6.12,-0.831 -9.318,-1.302 m 281.76,15.809 c 4.954,0.26 9.878,0.547 14.808,0.898 m 0,0 c 8.436,0.602 16.892,1.399 25.563,2.607 m -222.946,-1.839 c -9.374,0.05 -18.677,-0.024 -27.995,-0.26 m 56.544,-0.193 c -9.517,0.157 -19.033,0.308 -28.549,0.453 m 185.664,10.247 c -8.742,-0.485 -17.559,-0.867 -26.666,-1.379 m 0,0 c -8.271,-0.465 -16.781,-1.037 -25.692,-1.892 m -50.443,-5.075 c 8.565,0.744 17.094,1.599 25.561,2.482 m -79.875,-4.836 c 9.311,-0.137 18.654,0.071 27.996,0.527 m -137.908,-3.565 c -7.801,-0.785 -16.48,-2.052 -25.592,-3.411 m 163.5,6.976 c 8.787,0.428 17.57,1.067 26.318,1.827 m -110.858,-2.161 c -8.966,-0.227 -17.95,-0.603 -27.026,-1.152 m 240.685,11.659 c 8.473,0.471 16.878,1.043 25.407,1.921 m -266.092,-13.58 c -8.8,-0.481 -17.58,-1.174 -26.342,-2.079 m 214.669,10.467 c -8.299,-0.819 -16.593,-1.684 -24.882,-2.593 m 34.132,15.154 c -7.79,-0.64 -15.57,-1.393 -23.338,-2.26 m -185.208,-7.675 c -8.436,-0.564 -16.844,-1.404 -25.223,-2.521 m 106.711,4.49 c 9.603,-0.277 19.208,-0.342 28.815,-0.193 m 123.268,9.704 c -8.105,-0.41 -16.395,-0.869 -25.025,-1.545 m 25.025,1.545 c 8.188,0.415 16.193,0.785 24.175,1.285 m -147.443,-10.989 c 8.789,0.212 17.59,0.68 26.369,1.31 m -110.644,-1.581 c -8.605,-0.347 -17.259,-0.841 -26.028,-1.505 m 53.151,2.143 c -9.043,-0.071 -18.058,-0.273 -27.123,-0.638 m -51.251,-4.026 c -7.659,-1.04 -15.987,-2.375 -24.593,-3.682 m 186.488,9.289 c 8.388,0.602 16.754,1.353 25.075,2.169 m 0,0 c 7.871,0.772 15.697,1.6 23.461,2.42 m -103.72,-5.706 c -9.536,0.179 -18.954,0.248 -28.337,0.174 m 35.378,11.435 c 9.203,-0.235 18.409,-0.188 27.618,0.14 m 23.516,1.355 c 6.248,0.474 12.483,1.021 18.695,1.614 m 0,0 c 4.82,0.461 9.623,0.946 14.409,1.443 m -188.543,-7.745 c -6.879,-0.708 -14.52,-1.818 -22.581,-3.041 m 154.504,6.374 c 7.843,0.286 15.689,0.761 23.516,1.355 m -51.134,-1.495 c -10.06,0.242 -19.966,0.374 -29.812,0.354 m 121.35,4.961 c 0.959,0.102 1.921,0.202 2.878,0.304 M -435.006,266.72 c 7.856,1.077 15.635,2.293 23.067,3.421 m 70.242,6.138 c -8.01,-0.263 -16.052,-0.654 -24.172,-1.182 m 165.054,5.83 c 2.438,0.253 4.872,0.507 7.3,0.763 m -172.354,-6.593 c -7.846,-0.462 -15.675,-1.101 -23.489,-1.915 m 74.493,3.547 c -8.963,-0.018 -17.881,-0.157 -26.832,-0.45 m -26.043,10.459 c -4.786,-0.323 -9.605,-0.699 -14.464,-1.127 m 113.03,2.383 c 6.161,0.065 12.331,0.266 18.5,0.571 m -82.664,-0.3 c -6.097,-0.138 -12.201,-0.344 -18.33,-0.624 m 0,0 c -5.331,-0.244 -10.681,-0.538 -16.072,-0.903 m 54.91,1.75 c -6.853,10e-4 -13.68,-0.069 -20.508,-0.223 m 41.734,0.012 c -7.132,0.137 -14.196,0.21 -21.226,0.211 m 21.226,-0.211 c 7.474,-0.209 14.952,-0.303 22.43,-0.283 m -113.03,-2.383 c -3.977,-0.328 -7.946,-0.728 -11.909,-1.198 m -38.517,-5.526 c 5.809,0.807 11.563,1.677 17.157,2.52 m 21.36,3.006 c -3.005,-0.362 -6.12,-0.779 -9.324,-1.232 m 0,0 c -3.897,-0.552 -7.923,-1.155 -12.036,-1.774 m -37.056,-4.888 c 6.599,0.615 13.282,1.448 19.899,2.368 m 42.505,17.661 c -5.46,-0.614 -11.301,-1.419 -17.379,-2.297 m 118.708,5.735 c 6.91,-0.201 13.822,-0.278 20.736,-0.228 m -63.459,0.366 c -6.901,-0.132 -13.807,-0.353 -20.747,-0.68 m -123.41,-11.966 c 6.287,-0.124 12.841,0.128 19.514,0.631 m 103.896,11.335 c -6.424,-0.303 -12.883,-0.699 -19.4,-1.2 m -52.266,-6.383 c 5.599,0.801 11.104,1.622 16.428,2.39 m -32.738,-4.558 c 5.468,0.654 10.93,1.399 16.31,2.168 m -32.23,-3.752 c 5.26,0.397 10.591,0.946 15.92,1.584 m 129.504,10.581 c -6.949,0.027 -13.865,-0.018 -20.781,-0.15 m -192.393,3.751 c 15.712,-10.461 28.783,-16.015 48.236,-16.397 m 104.01,10.766 c -6.164,-0.451 -12.317,-1.016 -18.459,-1.696 m 101.329,3.438 c -7.379,0.16 -14.679,0.261 -21.942,0.288 m -145.922,-0.576 c 6.389,0.474 12.899,1.187 19.383,2.014 m 140.145,10.188 c 6.925,-0.165 13.852,-0.299 20.778,-0.403 m -160.923,-9.785 c 6.247,0.796 12.47,1.697 18.539,2.598 m 121.606,7.59 c -7.264,0.114 -14.468,0.163 -21.648,0.132 m 0,0 c -6.963,-0.031 -13.907,-0.139 -20.865,-0.345 m -20.936,-0.921 c -6.609,-0.393 -13.265,-0.889 -19.997,-1.504 m 0,0 c -6.489,-0.568 -12.961,-1.305 -19.414,-2.21 m 0,0 c -5.968,-0.823 -12.267,-1.781 -18.746,-2.742 m -109.903,6.52 c 8.448,-2.715 16.638,-5.663 26.343,-8.05 m 0,0 c 8.19,-2.127 16.521,-3.332 24.995,-3.613 m 137.658,12.52 c -6.951,-0.205 -13.917,-0.503 -20.936,-0.921 m -116.722,-11.599 c 6.6,-0.226 13.546,0.004 20.643,0.531 m -30.276,12.017 c 6.813,-0.713 14.086,-0.83 21.6,-0.544 m 0,0 c 6.689,0.254 13.563,0.822 20.469,1.571 m -65.462,3.383 c -7.902,1.957 -15.261,4.11 -22.993,6.018 m 232.386,1.571 c 6.885,-0.152 13.77,-0.283 20.656,-0.393 m -20.656,0.393 c -7.241,0.092 -14.43,0.118 -21.603,0.057 m -21.084,-0.453 c -6.961,-0.243 -13.947,-0.589 -20.989,-1.051 m -60.555,-7.025 c 6.775,0.953 13.428,1.948 19.805,2.851 m -39.505,-5.351 c 6.587,0.714 13.198,1.586 19.7,2.5 m 60.555,7.025 c -6.777,-0.446 -13.61,-1.002 -20.528,-1.686 m 62.601,3.19 c -7.029,-0.06 -14.046,-0.207 -21.084,-0.453 m -41.517,-2.737 c -6.762,-0.634 -13.503,-1.464 -20.222,-2.488 m -104.967,-1.968 c 7.7,-2.06 15.498,-3.529 23.393,-4.41 m -4.702,12.36 c 6.871,-0.747 14.108,-0.961 21.547,-0.801 m 102.839,10.571 c -6.886,-0.454 -13.757,-1.049 -20.616,-1.783 M -513.7,327.627 c -7.398,1.493 -14.572,3.129 -22.071,4.581 m 252.616,2.915 c -6.986,0.175 -13.892,0.305 -20.754,0.374 m -166.182,-12.223 c 6.855,0.147 13.879,0.609 20.947,1.261 m -64.556,3.092 c 7.294,-1.64 14.649,-2.824 22.062,-3.552 m 166.237,11.413 c -6.995,-0.082 -13.983,-0.249 -20.997,-0.521 m 0,0 c -6.914,-0.267 -13.852,-0.633 -20.854,-1.122 m -61.448,-7.013 c 6.906,0.881 13.73,1.826 20.355,2.715 m 104.436,5.95 c -7.199,0.073 -14.351,0.075 -21.492,-0.009 m -123.743,-10.953 c 6.814,0.628 13.667,1.431 20.444,2.297 m 40.832,5.23 c -6.493,-0.674 -13.369,-1.562 -20.477,-2.515 m 56.627,16.952 c -6.698,-0.311 -13.431,-0.721 -20.228,-1.246 m -144.653,-6.346 c -7.488,1.166 -14.902,2.431 -22.617,3.521 m 208.078,4.733 c -6.846,-0.128 -13.696,-0.343 -20.58,-0.662 m 62.861,0.518 c -6.999,0.151 -13.929,0.251 -20.824,0.285 m 0,0 c -7.176,0.034 -14.317,-0.008 -21.457,-0.141 m -185.461,-8.254 c 7.178,-1.117 14.429,-2.14 22.085,-2.824 m 21.328,-0.729 c 6.829,0.111 13.794,0.501 20.801,1.068 m 0,0 c 6.822,0.553 13.68,1.273 20.489,2.065 m -62.618,-2.404 c 7.087,-0.649 14.196,-0.893 21.328,-0.729 m 101.24,9.899 c -6.672,-0.503 -13.332,-1.126 -19.981,-1.867 m -39.969,-4.899 c 6.773,0.788 13.494,1.646 20.078,2.482 m 19.891,2.417 c -6.419,-0.713 -13.08,-1.552 -19.891,-2.417 m -88.792,7.226 c 7.124,-0.591 14.261,-0.879 21.412,-0.863 m 111.323,9.988 c -5.796,-0.41 -11.641,-0.91 -17.543,-1.496 m 0,0 c -5.666,-0.54 -11.324,-1.162 -16.974,-1.866 m 50.416,4.289 c -5.274,-0.246 -10.567,-0.549 -15.899,-0.927 m 35.486,1.577 c -6.515,-0.132 -13.036,-0.344 -19.587,-0.65 m 40.289,0.82 c -6.919,0.02 -13.811,-0.031 -20.702,-0.17 m -106.575,-9.147 c 6.26,0.635 12.5,1.346 18.672,2.075 m -38.563,-3.757 c 6.607,0.426 13.258,1.01 19.891,1.682 m 36.572,4.208 c -5.866,-0.69 -11.845,-1.417 -17.9,-2.133 m -104.32,-1.221 c -7.949,0.888 -15.959,1.78 -24.29,2.437 m 24.29,-2.437 c 7.969,-0.89 15.881,-1.773 24.002,-2.409 m 21.412,-0.863 c 6.685,0.02 13.49,0.293 20.343,0.736 m -69.035,13.073 c -9.199,0.612 -18.474,1.22 -28.021,1.56 m 91.487,-2.687 c 5.006,0.272 10.031,0.619 15.059,1.018 m 25.029,2.328 c 2.051,0.214 4.098,0.429 6.138,0.648 m 25.187,2.734 c -4.361,-0.464 -8.777,-0.948 -13.235,-1.436 m -43.119,-4.274 c 3.431,0.271 6.863,0.561 10.29,0.876 m -116.836,0.793 c -5.671,0.202 -11.444,0.3 -17.357,0.249 m 45.378,-1.809 c 8.135,-0.542 16.218,-1.081 24.396,-1.424 m 20.764,-0.327 c 6.051,0.075 12.162,0.291 18.306,0.624 m -39.07,-0.297 c 6.919,-0.316 13.84,-0.425 20.764,-0.327 m 43.655,2.518 c 2.55,0.234 5.096,0.479 7.638,0.73 m 0,0 c 2.373,0.235 4.739,0.476 7.101,0.722 m 6.138,0.648 c 4.01,0.429 7.998,0.865 11.952,1.298 m -86.945,5.817 c 5.062,0.027 10.122,0.148 15.181,0.362 m -30.659,-0.326 c 5.138,-0.067 10.293,-0.087 15.478,-0.036 m 15.181,0.362 c 4.964,0.188 9.952,0.442 14.951,0.743 m -62.326,-0.746 c 5.569,-0.132 11.135,-0.252 16.716,-0.323 m 45.61,1.069 c 4.773,0.286 9.554,0.617 14.334,0.984 m 29.465,2.222 c -5.07,-0.157 -10.125,-0.5 -15.167,-1.032 m -14.298,-1.19 c 4.772,0.366 9.541,0.765 14.298,1.19 m -97.546,-2.764 c 2.198,-0.052 4.393,-0.104 6.588,-0.156 m -46.903,-0.689 c 5.595,0.071 11.188,0.163 16.772,0.275 m 23.543,0.57 c 2.075,0.058 4.146,0.116 6.216,0.177 m 106.497,3.619 c 5.069,0.336 10.241,0.764 15.481,1.245 m -151.737,-5.611 c 5.002,0.1 9.995,0.217 14.978,0.343 m -31.75,-0.618 c -4.869,-0.068 -9.737,-0.155 -14.605,-0.26 m 46.355,0.878 c 2.859,0.072 5.714,0.148 8.565,0.227 m 78.96,9.173 c -5.105,-0.159 -10.246,-0.326 -15.428,-0.499 m 30.984,0.953 c 5.232,0.114 10.461,0.32 15.686,0.619 m -78.107,-2.639 c 5.327,0.178 10.631,0.359 15.901,0.54 m -93.507,-2.462 c -4.973,-0.077 -9.962,-0.183 -14.972,-0.317 m 170.685,4.878 c 5.083,0.305 10.275,0.713 15.543,1.182 m -108.569,-4.307 c 4.992,0.158 9.967,0.32 14.919,0.486 m 31.437,1.067 c -5.146,-0.172 -10.324,-0.349 -15.536,-0.527 m -77.363,-2.214 c -5.382,-0.08 -10.763,-0.163 -16.144,-0.248 m 31.279,0.557 c 5.113,0.12 10.215,0.255 15.304,0.398 m 93.444,2.987 c -5.139,-0.139 -10.325,-0.291 -15.556,-0.454 m -108.327,-3.24 c 5.051,0.09 10.098,0.191 15.135,0.309 m 15.304,0.398 c 5.386,0.151 10.755,0.312 16.104,0.481 m -65.513,5.14 c -5.129,-0.092 -10.281,-0.216 -15.45,-0.366 m 46.593,0.903 c 5.232,0.117 10.453,0.248 15.661,0.39 m -31.014,-0.692 c -5.264,-0.072 -10.527,-0.15 -15.79,-0.235 m 109.731,2.961 c -5.155,-0.173 -10.342,-0.351 -15.562,-0.529 m -16.09,-0.545 c 5.392,0.179 10.755,0.362 16.09,0.545 m -47.365,-1.505 c 5.419,0.148 10.822,0.307 16.205,0.474 m 78.059,2.537 c -5.209,-0.144 -10.469,-0.301 -15.772,-0.469 m -62.287,-2.068 c 5.042,0.157 10.069,0.319 15.07,0.486 m 62.989,2.051 c 5.255,0.11 10.507,0.299 15.756,0.566 m 0,0 c 5.085,0.284 10.288,0.677 15.57,1.135 m -156.604,-5.404 c 5.124,0.083 10.242,0.187 15.353,0.302 m 94.153,2.932 c -5.149,-0.162 -10.339,-0.332 -15.565,-0.508 m -48.584,4.992 c 5.063,0.155 10.106,0.318 15.13,0.484 m 63.045,2.064 c -5.233,-0.148 -10.519,-0.309 -15.845,-0.479 m -47.2,-1.585 c 5.398,0.179 10.767,0.361 16.109,0.544 m 46.936,1.52 c 5.245,0.106 10.487,0.281 15.727,0.524 m -141.271,-4.209 c -5.195,-0.07 -10.389,-0.149 -15.584,-0.236 m 46.868,0.909 c 5.377,0.145 10.742,0.299 16.085,0.464 m 62.33,2.069 c -5.153,-0.164 -10.35,-0.336 -15.579,-0.513 m -78.645,-2.404 c 5.281,0.115 10.551,0.243 15.809,0.384 m 109.987,3.536 c 5.067,0.257 10.255,0.627 15.531,1.072 m -172.386,-5.517 c -5.238,-0.101 -10.499,-0.236 -15.778,-0.396 m 31.362,0.632 c 5.164,0.079 10.324,0.178 15.475,0.289 m 78.645,2.404 c -5.139,-0.174 -10.31,-0.35 -15.512,-0.528 m 60.126,8.526 c 5.005,0.216 10.138,0.555 15.362,0.972 m -140.721,-4.81 c 5.299,0.112 10.591,0.236 15.868,0.374 m -31.379,-0.648 c 5.175,0.075 10.347,0.166 15.511,0.274 m -30.926,-0.523 c -5.299,-0.11 -10.619,-0.251 -15.959,-0.42 m 31.374,0.669 c -5.139,-0.068 -10.277,-0.151 -15.415,-0.249 m 109.265,2.892 c -5.09,-0.173 -10.216,-0.349 -15.366,-0.524 m 46.708,1.524 c -5.231,-0.15 -10.505,-0.312 -15.826,-0.484 m -46.973,-1.58 c 5.39,0.177 10.755,0.357 16.091,0.54 m -31.202,-1.018 c 5.056,0.153 10.093,0.313 15.111,0.478 m 62.799,2.064 c 5.228,0.118 10.454,0.274 15.678,0.469 m -109.491,-3.464 c 5.317,0.14 10.618,0.293 15.903,0.453 m 62.084,2.058 c -5.135,-0.166 -10.308,-0.339 -15.516,-0.516 m -35.116,5.436 c 5.388,0.174 10.752,0.354 16.089,0.535 m -46.906,-1.432 c 5.279,0.133 10.545,0.278 15.795,0.433 m 0,0 c 5.023,0.148 10.034,0.303 15.022,0.464 m 16.089,0.535 c 5.058,0.172 10.086,0.344 15.088,0.515 m -108.638,-2.832 c -5.343,-0.124 -10.707,-0.279 -16.091,-0.462 m 171.286,4.743 c 4.931,0.14 10.003,0.414 15.179,0.782 m -30.671,-1.22 c 5.165,0.113 10.329,0.259 15.492,0.438 m -124.551,-3.757 c 5.343,0.105 10.677,0.227 16,0.361 m -31.514,-0.613 c 5.175,0.066 10.348,0.151 15.514,0.252 m 109.059,3.319 c -5.191,-0.156 -10.428,-0.322 -15.704,-0.496 m 0,0 c -5.085,-0.167 -10.207,-0.339 -15.361,-0.515 m -93.508,-2.56 c -5.044,-0.07 -10.087,-0.161 -15.13,-0.272 m 145.939,10.636 c 5.279,0.107 10.555,0.28 15.829,0.518 m -45.279,-1.446 c -4.975,-0.168 -9.978,-0.339 -15.013,-0.511 m -61.1,-1.856 c 5.261,0.122 10.51,0.259 15.746,0.405 m 89.817,2.89 c -4.732,-0.134 -9.511,-0.28 -14.318,-0.433 m -107.54,-3.189 c 5.439,0.092 10.873,0.202 16.295,0.327 m 15.746,0.405 c 4.928,0.139 9.842,0.285 14.74,0.437 m -76.832,-1.724 c -5.349,-0.147 -10.718,-0.321 -16.108,-0.522 m 92.94,2.246 c 5.38,0.168 10.741,0.343 16.074,0.521 m 0,0 c 4.87,0.163 9.717,0.328 14.54,0.493 m -92.897,-2.416 c -4.831,-0.08 -9.681,-0.188 -14.549,-0.322 m 137.591,3.744 c -5.007,-0.158 -10.053,-0.324 -15.132,-0.495 m -92.408,-2.694 c -5.167,-0.072 -10.334,-0.15 -15.502,-0.233 m 87.639,8.847 c 4.177,0.142 8.333,0.284 12.472,0.426 m -126.06,-3.338 c -5.004,-0.173 -10.025,-0.368 -15.061,-0.58 m 74.078,1.845 c 4.416,0.104 8.822,0.22 13.22,0.341 m -44.448,-0.902 c -4.883,-0.074 -9.783,-0.174 -14.703,-0.303 m 87.373,2.069 c 4.394,0.146 8.771,0.293 13.129,0.442 m -100.502,-2.511 c -4.348,-0.115 -8.711,-0.25 -13.086,-0.401 m 44.03,0.955 c 5.002,0.09 10,0.192 14.987,0.31 m -14.987,-0.31 c -5.414,-0.082 -10.827,-0.166 -16.241,-0.251 m 59.804,1.353 c 4.303,0.134 8.592,0.272 12.866,0.413 m 50.919,1.702 c -5.917,-0.185 -11.888,-0.38 -17.907,-0.583 m -61.234,-1.983 c 5.134,0.142 10.255,0.293 15.356,0.451 m 45.878,1.532 c -2.463,-0.084 -4.933,-0.167 -7.411,-0.251 m -94.644,4.042 c -3.231,-0.046 -6.462,-0.1 -9.693,-0.159 m -34.043,-1.066 c -3.493,-0.143 -6.996,-0.295 -10.504,-0.455 m 44.547,1.521 c -3.39,-0.068 -6.791,-0.151 -10.198,-0.244 m 74.639,1.655 c 4.099,0.126 8.183,0.258 12.256,0.392 m -54.321,-1.447 c 3.385,0.06 6.767,0.128 10.146,0.202 m -54.686,-1.174 c -3.95,-0.138 -7.909,-0.287 -11.879,-0.45 m 89.189,2.2 c 3.105,0.089 6.203,0.182 9.295,0.277 m -108.988,-2.932 c -3.965,-0.179 -7.938,-0.367 -11.921,-0.563 m 88.99,2.642 c 3.794,0.083 7.583,0.172 11.366,0.269 m 0,0 c 3.759,0.097 7.513,0.199 11.258,0.307 m -45.453,-0.975 c 4.23,0.052 8.458,0.121 12.683,0.197 m -32.574,-0.6 c -3.978,-0.109 -7.966,-0.233 -11.966,-0.372 m 17.923,7.132 c -3.612,-0.084 -7.231,-0.177 -10.862,-0.289 m -44.68,-1.865 c -3.849,-0.193 -7.708,-0.392 -11.573,-0.595 m 56.253,2.46 c -3.556,-0.108 -7.124,-0.231 -10.698,-0.362 m 79.956,1.85 c 3.987,0.114 7.962,0.235 11.929,0.358 M -632.2,428.407 c -3.534,-0.166 -7.077,-0.339 -10.625,-0.517 m 22.282,1.036 c -3.878,-0.164 -7.762,-0.336 -11.657,-0.519 m 68.107,2.024 c -3.729,-0.05 -7.458,-0.104 -11.186,-0.163 m 0,0 c -3.989,-0.055 -7.991,-0.131 -12.004,-0.224 m -21.56,-0.651 c -3.889,-0.144 -7.791,-0.3 -11.7,-0.467 m 68.52,1.737 c 4.02,0.086 8.034,0.18 12.043,0.282 m -24.113,-0.514 c 4.027,0.067 8.05,0.147 12.07,0.232 m 12.043,0.282 c 3.703,0.095 7.403,0.193 11.093,0.298 m -121.451,2.875 c -3.803,-0.197 -7.615,-0.399 -11.432,-0.603 m 33.427,1.678 c -3.795,-0.173 -7.595,-0.353 -11.407,-0.541 m 69.77,2.304 c 4.069,0.056 8.136,0.123 12.199,0.2 m -23.598,-0.374 c -3.995,-0.074 -8.006,-0.173 -12.025,-0.283 m 59.513,1.217 c 3.943,0.107 7.877,0.22 11.802,0.338 m -94.709,-2.36 c -3.839,-0.156 -7.688,-0.325 -11.545,-0.501 m -11.407,-0.541 c -3.523,-0.173 -7.052,-0.351 -10.588,-0.534 m 45.565,2.028 c -3.998,-0.138 -8.005,-0.288 -12.025,-0.452 m 59.017,1.462 c 4.073,0.078 8.143,0.164 12.206,0.26 m -47.829,-0.917 c -3.78,-0.104 -7.569,-0.221 -11.369,-0.353 m 59.198,1.27 c 3.902,0.092 7.796,0.194 11.684,0.3 m -36.089,-0.76 c -3.799,-0.053 -7.599,-0.111 -11.399,-0.174 m 43.383,7.443 c 3.925,0.102 7.841,0.212 11.75,0.326 m -130.315,-4.14 c -3.693,-0.195 -7.391,-0.392 -11.097,-0.592 m 32.612,1.681 c -3.683,-0.176 -7.375,-0.359 -11.073,-0.547 m 96.039,2.983 c 4.034,0.088 8.063,0.184 12.084,0.289 m -24.403,-0.533 c 4.11,0.071 8.217,0.153 12.319,0.244 m -24.667,-0.43 c -3.863,-0.051 -7.741,-0.125 -11.628,-0.212 m -12.126,-0.318 c -3.927,-0.122 -7.867,-0.261 -11.814,-0.41 m 0,0 c -4.481,-0.168 -8.973,-0.349 -13.479,-0.546 m 0,0 c -3.742,-0.165 -7.494,-0.339 -11.252,-0.52 m -11.073,-0.547 c -3.474,-0.177 -6.955,-0.357 -10.442,-0.542 m 70.186,2.883 c -4.032,-0.091 -8.071,-0.193 -12.126,-0.318 m 36.102,0.716 c -4.116,-0.059 -8.232,-0.121 -12.348,-0.186 m -38.791,2.866 c -4.884,-0.039 -9.765,-0.077 -14.645,-0.117 m 98.862,2.659 c -3.815,-0.206 -7.629,-0.416 -11.444,-0.63 m -98.831,-2.137 c -3.727,-0.04 -7.454,-0.088 -11.18,-0.144 m 97.993,1.672 c 4.003,0.175 8.009,0.378 12.018,0.609 m -110.011,-2.281 c -3.536,-0.053 -7.072,-0.117 -10.606,-0.191 m 96.41,1.399 c 4.06,0.131 8.123,0.285 12.189,0.464 m -36.183,-1.025 c 3.903,0.061 7.808,0.137 11.715,0.225 m 0,0 c 4.09,0.092 8.184,0.205 12.279,0.336 m -63.211,-0.956 c -3.805,-0.031 -7.609,-0.068 -11.413,-0.108 m 26.058,0.225 c 4.092,0.033 8.187,0.072 12.283,0.116 m -60.127,-0.676 c -3.666,-0.078 -7.331,-0.17 -10.996,-0.277 m 71.123,0.953 c 4.094,0.043 8.191,0.098 12.289,0.162 m -42.931,3.293 c -3.725,-0.033 -7.449,-0.071 -11.172,-0.115 m 38.762,0.347 c 4.099,0.04 8.201,0.086 12.305,0.144 m -62.007,-0.648 c -3.491,-0.058 -6.982,-0.129 -10.472,-0.21 m 120.823,2.382 c 3.743,0.204 7.485,0.415 11.227,0.633 m -132.05,-3.015 c -3.578,-0.083 -7.155,-0.182 -10.731,-0.295 m 107.252,1.668 c 4.062,0.121 8.127,0.266 12.194,0.432 m -24.466,-0.742 c 4.088,0.084 8.179,0.189 12.272,0.31 m -75.109,-1.006 c -3.647,-0.043 -7.294,-0.096 -10.94,-0.157 m 37.234,0.395 c 4.154,0.033 8.31,0.068 12.468,0.109 m -12.468,-0.109 c -5.043,-0.039 -10.084,-0.079 -15.122,-0.123 m 39.895,0.376 c 3.921,0.056 7.844,0.124 11.77,0.205 m 24.466,0.742 c 4.033,0.165 8.069,0.358 12.108,0.577 m -113.522,1.497 c -3.446,-0.063 -6.891,-0.14 -10.335,-0.227 m 120.164,2.244 c 3.61,0.19 7.22,0.392 10.829,0.604 m -35.065,-1.512 c 4.05,0.108 8.103,0.232 12.158,0.383 m -60.828,-1.073 c 4.182,0.033 8.366,0.068 12.552,0.105 m -27.851,-0.233 c -3.642,-0.034 -7.283,-0.074 -10.923,-0.122 m 87.05,1.323 c 4.023,0.149 8.049,0.325 12.078,0.525 m -72.906,-1.598 c -5.101,-0.039 -10.201,-0.079 -15.299,-0.128 m 51.797,0.547 c 4.055,0.075 8.112,0.163 12.172,0.271 m -74.892,-0.94 c -3.567,-0.047 -7.135,-0.103 -10.701,-0.169 m 61.707,0.657 c 3.903,0.049 7.807,0.109 11.714,0.181 m -83.756,-1.065 c -3.488,-0.089 -6.975,-0.194 -10.462,-0.313 m 70.272,1.064 c 4.076,0.037 8.153,0.081 12.232,0.133 m -75.037,2.756 c -3.399,-0.094 -6.797,-0.2 -10.195,-0.325 m 20.389,0.568 c -3.398,-0.07 -6.797,-0.149 -10.194,-0.243 m 94.114,1.302 c 3.986,0.092 7.974,0.204 11.964,0.334 m -59.769,-0.941 c -4.999,-0.039 -9.996,-0.084 -14.992,-0.136 m 0,0 c -3.556,-0.038 -7.11,-0.083 -10.664,-0.134 m 61.61,0.644 c 3.949,0.064 7.899,0.142 11.851,0.233 m -23.312,-0.389 c 3.818,0.043 7.639,0.095 11.461,0.156 m -61.61,-0.644 c -3.487,-0.051 -6.973,-0.112 -10.459,-0.182 m 107.671,1.845 c 3.356,0.147 6.714,0.316 10.075,0.503 m -21.862,-0.955 c 3.926,0.128 7.855,0.278 11.787,0.452 m -59.077,-1.293 c 4.003,0.034 8.008,0.074 12.014,0.118 m -24.493,-0.218 c 4.158,0.033 8.318,0.066 12.479,0.1 m 6.218,3.776 c 3.633,0.034 7.268,0.076 10.904,0.123 m 0,0 c 3.732,0.049 7.465,0.108 11.201,0.178 m -59.449,-0.635 c -3.467,-0.04 -6.933,-0.09 -10.399,-0.146 m 92.307,1.379 c 2.994,0.107 5.991,0.234 8.989,0.367 m -101.296,-1.746 c -3.404,-0.056 -6.809,-0.123 -10.213,-0.199 m 80.061,0.98 c 3.849,0.071 7.7,0.156 11.553,0.258 m -101.658,-1.504 c -3.308,-0.099 -6.616,-0.214 -9.923,-0.344 m 19.967,0.61 c -3.349,-0.076 -6.697,-0.165 -10.044,-0.266 m 44.5,0.749 c -4.617,-0.039 -9.231,-0.084 -13.844,-0.138 m 71.002,0.893 c 3.633,0.096 7.268,0.21 10.906,0.34 m -55.996,-0.998 c 3.809,0.03 7.62,0.063 11.432,0.099 m -11.432,-0.099 c -4.024,-0.032 -8.047,-0.064 -12.068,-0.097 m 6.539,3.774 c -3.848,-0.03 -7.695,-0.062 -11.541,-0.097 m 0,0 c -4.187,-0.039 -8.372,-0.082 -12.557,-0.137 m 24.098,0.234 c 3.191,0.025 6.382,0.05 9.576,0.076 m -43.805,-0.47 c -3.323,-0.06 -6.645,-0.134 -9.967,-0.216 m 85.187,1.085 c 3.045,0.06 6.091,0.135 9.139,0.215 m -20.014,-0.398 c 3.623,0.051 7.248,0.111 10.875,0.183 m -31.415,-0.399 c 3.377,0.028 6.756,0.057 10.136,0.092 m -43.81,-0.402 c -3.377,-0.044 -6.754,-0.098 -10.131,-0.16 m -9.967,-0.216 c -3.295,-0.082 -6.59,-0.179 -9.885,-0.288 m 73.793,1.066 c 3.467,0.035 6.935,0.076 10.404,0.124 m -84.197,-1.19 c -3.215,-0.105 -6.431,-0.229 -9.645,-0.364 m 113.856,1.952 c 2.593,0.067 5.188,0.149 7.784,0.233 m -48.768,2.869 c 2.926,0.024 5.853,0.05 8.781,0.078 m -34.34,-0.297 c -3.83,-0.039 -7.659,-0.088 -11.487,-0.145 m 45.827,0.442 c 3.111,0.031 6.224,0.068 9.336,0.108 m -27.102,-0.257 c -1.852,-0.014 -3.703,-0.03 -5.554,-0.045 m 5.554,0.045 c 2.994,0.023 5.989,0.047 8.985,0.071 m 25.627,0.298 c 2.548,0.041 5.097,0.084 7.648,0.136 m -47.814,-0.55 c -3.674,-0.03 -7.348,-0.064 -11.02,-0.103 m 43.676,0.405 c 2.503,0.032 5.006,0.071 7.51,0.112 m -82.257,-1.062 c -3.242,-0.088 -6.484,-0.187 -9.725,-0.303 m 19.447,0.531 c -3.241,-0.066 -6.481,-0.139 -9.722,-0.228 m -9.725,-0.303 c -3.124,-0.112 -6.247,-0.245 -9.37,-0.386 m 38.679,1.089 c -3.288,-0.049 -6.575,-0.105 -9.862,-0.172 m 37.948,4.185 c -2.904,-0.022 -5.806,-0.047 -8.708,-0.072 m -12.74,-0.131 c -3.529,-0.042 -7.058,-0.094 -10.586,-0.154 m -9.583,-0.192 c -3.155,-0.071 -6.31,-0.155 -9.465,-0.25 m 40.153,0.707 c -3.507,-0.031 -7.014,-0.069 -10.519,-0.111 m -39.182,-0.924 c -3.038,-0.118 -6.077,-0.244 -9.115,-0.392 m 37.711,1.162 c -3.195,-0.053 -6.389,-0.119 -9.583,-0.192 m -9.465,-0.25 c -3.183,-0.096 -6.366,-0.204 -9.548,-0.328 m 51.922,1.055 c -0.74,-0.006 -1.48,-0.013 -2.221,-0.02 m 28.445,0.24 c 2.663,0.026 5.328,0.058 7.993,0.09 m 0,0 c 2.874,0.035 5.749,0.077 8.625,0.123 m -25.468,-0.292 c 2.949,0.024 5.899,0.05 8.85,0.079 m -17.516,-0.148 c 2.888,0.023 5.776,0.045 8.666,0.069 m 11.523,3.826 c 2.923,0.03 5.847,0.065 8.773,0.104 m -34.608,-0.325 c -2.935,-0.024 -5.87,-0.049 -8.804,-0.078 m 17.624,0.149 c -2.941,-0.023 -5.881,-0.047 -8.82,-0.071 m -58.418,-1.224 c -2.944,-0.125 -5.887,-0.265 -8.831,-0.419 m 84.875,1.787 c 2.736,0.024 5.471,0.048 8.209,0.077 m -36.502,-0.32 c -3.347,-0.034 -6.694,-0.074 -10.04,-0.121 m -28.352,-0.646 c -3.12,-0.104 -6.239,-0.226 -9.359,-0.358 m 67.238,1.295 c 2.934,0.023 5.87,0.048 8.806,0.073 m -26.43,-0.222 c -0.621,-0.005 -1.242,-0.014 -1.863,-0.021 m -29.184,-0.491 c -3.07,-0.079 -6.139,-0.174 -9.208,-0.276 m 18.511,0.486 c -3.101,-0.059 -6.203,-0.131 -9.303,-0.21 m 19.144,0.37 c -3.281,-0.046 -6.561,-0.097 -9.841,-0.16 m -31.579,2.722 c -2.848,-0.132 -5.697,-0.289 -8.546,-0.45 m 57.993,1.707 c -1.167,-0.013 -2.335,-0.026 -3.502,-0.04 m 12.323,0.128 c -2.941,-0.026 -5.882,-0.056 -8.821,-0.088 m 26.487,0.231 c 2.828,0.023 5.658,0.049 8.487,0.076 m -17.311,-0.145 c 2.941,0.023 5.881,0.046 8.824,0.069 m -48.791,-0.59 c -3.01,-0.067 -6.02,-0.142 -9.029,-0.229 m 27.831,0.548 c -3.19,-0.039 -6.378,-0.087 -9.567,-0.139 m 0,0 c -3.078,-0.051 -6.157,-0.112 -9.235,-0.18 m -17.994,-0.517 c -3.05,-0.113 -6.099,-0.24 -9.149,-0.381 m 18.114,0.669 c -2.989,-0.086 -5.978,-0.178 -8.965,-0.288 m 57.961,1.038 c -2.949,-0.023 -5.895,-0.049 -8.842,-0.074 m 26.153,0.219 c 2.936,0.028 5.873,0.062 8.811,0.098 m -79.719,2.584 c -2.893,-0.095 -5.786,-0.206 -8.678,-0.325 m 35.335,0.937 c -3.038,-0.044 -6.076,-0.092 -9.114,-0.152 m -26.221,-0.785 c -2.966,-0.122 -5.931,-0.257 -8.897,-0.409 m 50.155,1.426 c -1.975,-0.024 -3.949,-0.051 -5.923,-0.08 m -9.114,-0.152 c -2.933,-0.057 -5.866,-0.124 -8.799,-0.199 m 50.307,0.675 c -2.943,-0.023 -5.885,-0.046 -8.826,-0.07 m -41.481,-0.605 c -2.915,-0.074 -5.83,-0.165 -8.744,-0.261 m 67.698,1.009 c 2.938,0.026 5.876,0.056 8.816,0.088 m -35.126,-0.307 c -2.937,-0.028 -5.873,-0.062 -8.808,-0.098 m -50.155,-1.426 c -2.768,-0.141 -5.535,-0.285 -8.304,-0.454 m 84.93,2.124 c 2.881,0.022 5.764,0.048 8.647,0.073 m -17.473,-0.143 c -2.947,-0.024 -5.892,-0.048 -8.837,-0.076 m 13.432,3.833 c 2.917,0.022 5.834,0.045 8.752,0.069 m 0,0 c 2.929,0.024 5.86,0.05 8.79,0.079 m -26.34,-0.221 c -2.929,-0.025 -5.858,-0.054 -8.786,-0.085 m -50.925,-1.278 c -2.839,-0.133 -5.678,-0.29 -8.517,-0.451 m 50.69,1.626 c -2.696,-0.037 -5.391,-0.082 -8.086,-0.13 m 34.422,0.391 c -2.933,-0.023 -5.866,-0.048 -8.798,-0.073 m -42.802,-0.73 c -2.831,-0.085 -5.662,-0.176 -8.493,-0.283 m 17.008,0.512 c -2.839,-0.066 -5.677,-0.144 -8.515,-0.229 m 17.178,0.412 c -2.888,-0.051 -5.776,-0.115 -8.663,-0.183 m 25.501,0.416 c -2.918,-0.03 -5.835,-0.063 -8.752,-0.103 m -33.757,-0.825 c -2.806,-0.106 -5.611,-0.22 -8.416,-0.35 m -8.517,-0.451 c -2.678,-0.152 -5.357,-0.322 -8.036,-0.503 m -5.349,3.354 c -0.275,-0.02 -0.549,-0.035 -0.824,-0.056 m 8.649,0.592 c -2.608,-0.167 -5.216,-0.34 -7.825,-0.536 m 132.086,-19.064 c 4.526,-1.388 9.221,-1.993 15.493,-3.303 m 33.481,-14.802 c -0.437,0.493 -0.889,0.977 -1.361,1.453 m 0,0 c -1.222,1.233 -2.574,2.402 -4.091,3.485 m 110.895,-41.216 c -7.458,3.534 -17.269,4.993 -27.76,5.734 m -150.79,66.897 c -0.901,0.63 -1.881,1.225 -2.987,1.76 m 10.344,-9.115 c 1.088,-1.27 2.207,-2.519 3.503,-3.679 m 76.359,-44.741 c 3.011,-2.957 6.549,-5.047 10.613,-6.27 m -19.901,19.22 c 1.427,-2.187 2.755,-4.389 4.157,-6.497 m -71.228,38.288 c 1.6,-1.386 3.325,-2.598 5.172,-3.638 m -11.88,10.998 c -1.212,1.302 -2.545,2.551 -4.152,3.674 m 74.856,-38.462 c -0.555,0.715 -1.137,1.419 -1.749,2.109 m -5.452,4.938 c -1.765,1.262 -3.758,2.404 -6.048,3.383 m 0,0 c -3.065,1.255 -6.191,2.337 -9.381,3.246 M -68.004,234.679 c 5.688,-7.712 11.103,-14.831 19,-20.654 m 0,0 c 10.816,-7.975 25.336,-11.948 38.537,-13.463 m -511.622,237.492 c 1.54,-2.315 3.173,-4.515 5.131,-6.453 M -84.646,255.034 c -0.011,0.011 -0.022,0.022 -0.034,0.033 m 16.676,-20.388 c -4.797,6.505 -9.792,13.43 -16.642,20.355 m -108.869,26.656 c 3.466,0.02 6.953,0.06 10.449,0.1 m -343.18,162.761 c -0.961,1.473 -1.969,2.938 -3.075,4.363 m 432.8,-183.551 c -5.806,4.438 -12.245,7.838 -19.315,10.199 m 0,0 c -19.629,6.694 -43.604,6.496 -67.23,6.228 m -97.214,41.531 c -0.98,4.025 -1.774,8.012 -2.875,11.802 m 2.875,-11.802 c 0.963,-3.958 2.114,-7.95 3.926,-11.824 m -229.991,113.834 c 13.479,-4.471 34.286,-3.532 52.958,-4.852 m 170.232,-85.356 c -1.25,4.3 -2.908,8.343 -5.702,11.894 m 74.149,-64.983 c 6.875,-0.336 13.983,-0.386 21.193,-0.344 M 21.51,199.653 c 8.681,0.256 17.553,0.758 26.404,1.19 m -58.381,-0.281 c 2.298,-0.265 4.636,-0.473 7.009,-0.633 m 0,0 c 7.999,-0.536 16.389,-0.528 24.968,-0.276 m -106.19,55.414 c -3.415,3.45 -7.297,6.899 -11.841,10.296 m -307.258,111.316 c 2.446,-4.563 6.035,-7.876 10.768,-9.937 m 104.154,-19.725 c -5.649,6.829 -13.259,10.846 -22.83,12.05 M -551.951,462.59 c -4.895,1.499 -9.009,2.485 -12.6,3.235 m 156.635,-76.287 c 0.552,-2.205 1.076,-4.378 1.688,-6.472 m -190.592,96.955 c -1.054,1.229 -2.082,2.476 -3.205,3.681 m 192.109,-94.164 c -0.536,2.142 -1.105,4.31 -1.814,6.458 m 0,0 c -0.716,2.166 -1.581,4.31 -2.706,6.382 m -4.585,6.276 c -2.497,2.557 -5.365,4.588 -8.606,6.091 m -162.518,57.959 c 2.834,-1.666 5.441,-2.76 8.101,-3.576 m 175.923,-91.767 c 0.109,-0.23 0.225,-0.456 0.342,-0.682 m 135.719,-76.921 c 4.903,-4.947 10.78,-8.56 17.386,-11.193 m 0,0 c 10.476,-4.174 22.784,-5.887 35.966,-6.531 m -197.728,120.344 c -1.19,2.192 -2.669,4.305 -4.585,6.276 m 24.01,-41.912 c 19.828,-9.47 55.715,-2.566 81.324,-7.675 m -94.541,23.999 c 0.583,-1.991 1.25,-3.908 2.107,-5.705 m 127.767,-65.864 c 2.07,-4.391 4.834,-8.304 8.294,-11.739 m 243.444,-99.96 c -1.143,0.052 -2.291,0.094 -3.445,0.126 m -260.735,100.062 c 5.479,-5.51 12.13,-9.337 19.622,-11.992 m 174.337,-55.146 c -4.568,6.199 -9.197,12.849 -15.372,19.579 M -297.132,311.9 c 2.028,-4.486 4.808,-8.458 8.336,-11.914 M 75.046,196.849 c -8.392,2.364 -17.55,3.519 -27.132,3.994 m -653.545,279.08 c 1.096,-1.275 2.23,-2.526 3.541,-3.685 m 491.437,-223.325 c -3.256,3.508 -6.948,7.035 -11.275,10.529 m -18.083,10.835 c -12.829,5.154 -27.658,6.926 -43.055,7.513 m 107.462,-68.979 c 13.188,-8.989 30.969,-12.049 46.479,-12.834 m -280.556,147.325 c -5.679,6.583 -13.249,10.448 -22.708,11.595 m -211.269,92.946 c -1.119,1.234 -2.342,2.412 -3.693,3.514 M -94.837,232.848 c 5.587,-7.582 11.093,-14.488 19.233,-20.037 m -107.462,68.979 c -2.511,0.096 -5.036,0.161 -7.571,0.204 m -78.537,6 c 15.532,-5.505 34.673,-5.98 54.466,-5.96 m 24.071,-0.04 c -8,0.132 -16.087,0.048 -24.071,0.04 m -326.057,166.25 c -0.607,0.825 -1.241,1.638 -1.91,2.434 M -3.458,199.929 c 4.715,0.147 9.466,0.343 14.218,0.534 m 37.154,0.38 c -11.947,0.591 -24.553,0.125 -37.154,-0.38 m -432.531,181.421 c 0.642,-2.163 1.374,-4.214 2.314,-6.074 m -12.743,32.062 c -2.63,2.763 -5.716,4.881 -9.256,6.355 m 412.331,-214.25 c 0.354,-0.018 0.709,-0.037 1.064,-0.053 m 3.445,-0.126 c 6.886,-0.198 13.978,-0.092 21.158,0.131 m -300.451,135.568 c -1.318,4.373 -3.027,8.428 -5.772,11.805 M -560.94,462.223 c -4.252,1.497 -8.004,2.549 -11.395,3.369 m 19.69,-6.751 c -2.681,1.327 -5.446,2.454 -8.295,3.382 m 13.589,-6.866 c -1.568,1.28 -3.316,2.454 -5.294,3.484 m 9.97,-8.123 c -0.32,0.379 -0.647,0.755 -0.983,1.125 m 421.73,-188.401 c -5.431,4.524 -11.459,8.135 -18.083,10.835 m -160.925,49.437 c -0.985,4.005 -1.836,8.011 -2.973,11.783 M -602.09,476.238 c 1.635,-1.415 3.409,-2.634 5.32,-3.657 m 0,0 c 3.033,-1.684 5.976,-2.752 9.078,-3.589 m 0,0 c 4.519,-1.22 9.383,-1.956 15.357,-3.4 m 271.399,-141.878 c 0.989,-4.019 2.117,-8.035 3.804,-11.814 m -231.755,119.343 c 2.899,-2.951 6.328,-5.053 10.286,-6.304 m 95.115,-36.536 c 0.557,-2.233 1.095,-4.428 1.715,-6.519 m -96.83,43.055 c 12.289,-4.337 30.359,-3.977 47.307,-5.043 m 29.838,-5.669 c -8.173,3.646 -18.755,4.972 -29.838,5.669 m 65.048,-54.59 c 20.058,-7.588 50.68,-1.879 73.857,-6.409 m -87.068,16.913 c 0.064,-0.127 0.131,-0.251 0.197,-0.376 m -8.538,25.972 c -1.146,2.307 -2.567,4.493 -4.402,6.466 m -105.796,36.353 c -0.875,1.365 -1.788,2.726 -2.769,4.059 m 2.769,-4.059 c 1.41,-2.201 2.731,-4.407 4.105,-6.509 m 0,0 c 1.53,-2.341 3.133,-4.549 5.004,-6.473 m 109.627,-55.809 c 2.975,-5.056 7.313,-8.432 13.014,-10.128 m -19.015,29.618 c -0.69,2.215 -1.501,4.397 -2.537,6.482 m 4.312,-13.003 c -0.538,2.162 -1.1,4.355 -1.775,6.521 m -187.706,92.373 c -0.931,0.66 -1.946,1.282 -3.097,1.839 m 7.223,-5.522 c -1.207,1.303 -2.533,2.555 -4.126,3.683 m 7.336,-7.374 c -1.057,1.231 -2.089,2.48 -3.21,3.691 m 498.632,-231.187 c -0.148,0.162 -0.294,0.324 -0.444,0.486 M -550.08,443.936 c 1.534,-2.216 2.987,-4.426 4.505,-6.52 m 138.426,-75.444 c 5.875,-0.67 12.188,-0.902 18.618,-1.052 m 96.927,-72.643 c 24.986,-9.109 59.71,-4.784 90.789,-7.35 m -233.81,93.804 c 0.066,-0.109 0.13,-0.22 0.198,-0.329 m -111.148,63.014 c 1.71,-2.358 3.508,-4.565 5.595,-6.471 m 0,0 c 3.435,-3.125 7.463,-5.219 12.084,-6.283 m 72.122,-10.868 c -6.163,3.227 -14.206,4.869 -22.931,5.851 m 37.717,-25.245 c -0.669,2.215 -1.466,4.411 -2.488,6.537 m -137.998,64.44 c -5.63,1.745 -9.876,2.528 -13.728,3.503 m 39.436,-17.614 c -1.126,1.237 -2.335,2.434 -3.663,3.566 m -5.003,3.557 c -2.389,1.338 -4.861,2.503 -7.414,3.494 m 16.817,-11.445 c -0.242,0.278 -0.488,0.554 -0.737,0.828 m 116.524,-63.429 c 0.56,-2.255 1.117,-4.466 1.785,-6.572 m -167.306,91.226 c 3.315,-1.816 6.302,-2.786 9.561,-3.611 m 45.122,-24.944 c -0.866,1.251 -1.759,2.503 -2.703,3.739 m -19.063,14.208 c -3.645,1.507 -6.807,2.619 -9.628,3.494 m 432.88,-203.314 c -4.984,4.304 -10.465,7.86 -16.442,10.669 m 43.535,-42.291 c -4.687,6.265 -9.217,13.021 -15.103,19.809 m -281.594,113.758 c 3.426,-0.943 7.136,-1.59 11.049,-2.036 M -136.604,250.25 c -0.195,0.224 -0.391,0.448 -0.588,0.672 M 43.681,194.77 c -6.859,2.507 -14.321,4.017 -22.171,4.883 m -31.977,0.909 c -6.193,-0.146 -12.44,-0.386 -18.658,-0.585 m -108.067,50.945 c -3.289,3.735 -7.006,7.474 -11.402,11.141 m -410.835,192.769 c -1.503,1.28 -3.158,2.475 -5.003,3.557 m 212.456,-100.142 c -11.008,2.379 -23.995,2.38 -36.555,2.673 m -139.365,63.742 c 13.204,-3.653 32.439,-3.132 49.191,-5.017 m 44.278,-45.243 c 3.801,-5.55 9.211,-9.015 16.229,-10.394 m -29.494,43.426 c -2.291,2.653 -4.985,4.774 -8.082,6.36 M 21.51,199.653 c -3.513,0.388 -7.102,0.647 -10.75,0.81 m -40.368,-0.501 c 0.161,0.005 0.322,0.01 0.483,0.015 m 39.885,0.486 c -6.912,0.308 -14.032,0.267 -21.227,0.099 m -42.214,-0.845 c 7.529,-0.173 15.275,-0.002 23.073,0.245 m -281.13,100.312 c 5.314,-5.497 11.804,-9.326 19.134,-11.997 M 69.42,174.282 c -5.919,10.072 -14.499,16.901 -25.739,20.488 m -208.717,77.962 c -10.667,4.876 -22.907,7.131 -35.779,8.195 m -351.968,166.748 c -0.715,0.934 -1.461,1.858 -2.246,2.763 m 115.787,-62.601 c -0.538,2.166 -1.084,4.371 -1.746,6.563 m 3.531,-13.135 c 0.743,-2.338 1.634,-4.543 2.832,-6.534 m -179.493,105.116 c -1.13,1.234 -2.209,2.483 -3.37,3.694 m 495.987,-253.1 c 5.605,-7.492 11.439,-14.281 20.105,-19.573 m -221.143,112.903 c -0.958,4.004 -1.752,7.97 -2.862,11.717 m -5.737,11.673 c -5.226,6.139 -12.172,9.834 -20.838,11.086 m -265.512,125.294 c -1.247,1.298 -2.603,2.548 -4.231,3.687 m 11.42,-11.067 c 1.728,-1.392 3.573,-2.616 5.536,-3.67 m 161.287,-71.554 c -1.091,2.273 -2.454,4.46 -4.216,6.497 m -166.426,72.413 c 1.16,-1.266 2.384,-2.514 3.819,-3.686 m 284.898,-140.673 c -1.263,4.265 -2.943,8.243 -5.737,11.673 m 8.599,-23.39 c 0.941,-3.934 2.043,-7.904 3.759,-11.739 m 0,0 c 1.979,-4.393 4.66,-8.312 8.042,-11.758 m 209.342,-89.406 c 15.28,-7.909 31.518,-11.626 48.715,-11.151 m -569.038,287.511 c -0.973,0.68 -2.034,1.324 -3.245,1.908 m 273.246,-142.637 c -4.086,5.322 -9.471,8.929 -16.157,10.821 m -88.958,36.601 c -0.674,2.2 -1.459,4.395 -2.469,6.532 M 32.222,172.763 c -5.102,9.686 -12.69,16.496 -22.764,20.429 m -94.099,6.306 c 6.912,-0.294 14.008,-0.234 21.15,-0.072 m 72.949,-6.234 c -10.149,4.335 -21.774,6.053 -34.074,6.606 m -321.782,135.169 c -1.154,4.105 -2.685,7.991 -5.32,11.532 m 8.095,-23.181 c -0.983,4 -1.726,7.915 -2.775,11.649 m 172.112,-74.796 c -4.34,3.943 -9.036,7.376 -14.088,10.301 m -270.928,129.981 c -1.064,2.251 -2.385,4.433 -4.094,6.485 M -28.061,199.924 c -0.514,0.015 -1.031,0.027 -1.547,0.038 m -95.795,8.655 c 12.904,-5.998 26.491,-9.038 40.762,-9.119 m -368.372,181.313 c 0.871,-2.358 1.94,-4.557 3.4,-6.504 m -102.41,56.356 c 3.663,-3.218 7.953,-5.32 12.869,-6.308 m 150.623,-63.435 c -6.097,0.501 -12.413,0.741 -18.618,1.052 m 259.887,-134.41 c 5.786,-7.372 12.202,-13.959 21.859,-18.945 m -329.611,178.751 c 0.608,-2.266 1.23,-4.472 2.001,-6.557 m 3.4,-6.504 c 0.281,-0.374 0.576,-0.74 0.888,-1.095 m 301.463,-145.65 c -4.85,6.181 -9.265,12.91 -14.783,19.707 m -460.897,232.509 c 1.163,-1.266 2.392,-2.515 3.837,-3.69 m -3.837,3.69 c -1.134,1.234 -2.212,2.482 -3.372,3.693 M -367.875,357.32 c -6.157,1.992 -13.242,2.992 -20.656,3.6 m -66.483,26.448 c -0.576,2.152 -1.145,4.353 -1.819,6.553 m 293.057,-144.563 c -3.067,3.624 -6.495,7.252 -10.51,10.813 m 110.795,-60.745 c 3.598,0.082 7.207,0.189 10.81,0.291 m -396.044,173.495 c 6.144,-6.508 14.274,-9.792 24.389,-9.852 m -152.06,94.695 c -2.247,1.362 -4.582,2.551 -7.003,3.57 m 251.88,-161.501 c 5.228,-5.351 11.565,-9.057 18.689,-11.636 m 0,0 c 27.003,-9.776 65.322,-3.38 97.606,-9.004 m -209.112,83.876 c 5.43,-0.725 11.256,-1.09 17.187,-1.388 m -176.25,99.653 c -3.41,1.52 -6.352,2.665 -8.95,3.569 m 24.927,-14.972 c -0.178,0.205 -0.356,0.409 -0.538,0.612 m -45.653,21.578 c 3.202,-1.798 5.999,-2.765 9.075,-3.64 M 32.222,172.763 c 4.15,-7.227 7.569,-15.117 12.254,-20.825 m -636.825,313.256 c -5.027,1.749 -8.783,2.611 -12.189,3.578 m 32.951,-14.323 c -1.456,1.286 -3.047,2.498 -4.809,3.606 m 13.997,-14.363 c -0.829,1.175 -1.68,2.353 -2.573,3.519 m 0,0 c -0.778,1.018 -1.593,2.024 -2.45,3.011 m -0.538,0.612 c -1.119,1.25 -2.321,2.461 -3.627,3.615 m 13.806,-17.293 c 1.771,-2.384 3.624,-4.601 5.758,-6.493 m 363.649,-160.191 c -8.103,4.579 -17.206,7.333 -26.85,9.012 m 185.616,-79.522 c -7.543,0.163 -15.293,-0.026 -23.073,-0.245 m -418.225,213.582 c -5.395,3.128 -12.486,4.842 -20.271,5.92 m -47.977,5.136 c 13.295,-3.393 32.087,-2.936 47.977,-5.136 m -127.928,56.869 c 1.724,-1.378 3.555,-2.603 5.492,-3.676 m 150.217,-65.474 c -2.152,2.579 -4.656,4.699 -7.51,6.361 m -159.611,73.856 c -1,0.706 -2.094,1.375 -3.347,1.981 m 294.219,-177.449 c 2.068,-4.284 4.777,-8.139 8.126,-11.563 m -12.104,23.194 c 0.942,-3.827 2.106,-7.732 3.978,-11.631 m -286.669,171.784 c -1.241,1.295 -2.589,2.543 -4.203,3.684 m 68.118,-43.463 c 1.572,-2.23 3.066,-4.445 4.618,-6.536 m 395.736,-189.887 c -0.564,0.696 -1.142,1.393 -1.731,2.089 M -594.6,461.447 c -3.02,1.5 -5.709,2.667 -8.153,3.623 m -36.55,22 c -1.03,0.74 -2.162,1.436 -3.461,2.066 m 309.426,-200.871 c 28.019,-9.478 67.578,-1.945 99.419,-10.395 m -368.834,187.2 c -4.055,1.586 -7.443,2.604 -10.566,3.624 m 25.072,-10.872 c -2.027,1.37 -4.145,2.578 -6.353,3.625 m 229.988,-139.18 c 0.939,-3.821 2.129,-7.691 4.031,-11.501 m -219.651,139.758 c -1.103,1.26 -2.275,2.483 -3.527,3.654 m 6.508,-7.303 c -0.821,1.066 -1.673,2.123 -2.563,3.162 M -27.693,192.88 c -10.657,4.507 -22.901,6.085 -35.798,6.546 m -301.121,122.841 c -0.972,3.953 -1.684,7.852 -2.64,11.578 m -264.532,145.859 c -1.134,1.231 -2.211,2.479 -3.367,3.691 m 0,0 c -1.231,1.29 -2.563,2.535 -4.152,3.675 m 88.783,-62.984 c 13.13,-3.133 31.212,-2.863 46.214,-5.309 m -79.453,35.401 c -1.383,1.293 -2.868,2.518 -4.488,3.644 m 439.572,-251.857 c 11.021,-4.119 22.455,-6.249 34.303,-6.39 m -364.385,206.848 c -2.03,2.584 -4.417,4.706 -7.162,6.365 m 11.101,-12.851 c -1.024,2.24 -2.291,4.422 -3.939,6.486 m 6.345,-13.015 c -0.663,2.193 -1.426,4.386 -2.406,6.529 m 286.807,-155.312 c -0.563,0.748 -1.136,1.497 -1.72,2.247 m 0,0 c -2.798,3.586 -5.871,7.18 -9.437,10.706 M -470.579,386.86 c -0.595,2.143 -1.167,4.344 -1.833,6.548 m 273.244,-135.83 c -3.634,3.591 -7.78,7.11 -12.667,10.474 m 0,0 c -6.591,4.635 -13.952,7.908 -22.084,9.818 m -151.499,77.954 c -12.675,5.253 -30.19,5.366 -46.019,6.814 m 243.426,-118.013 c 5.238,-6.966 9.605,-13.835 14.689,-20.036 m -289.737,147.639 c 7.454,-6.78 23.003,-8.801 31.622,-9.59 m -132.656,67.793 c 3.854,-3.326 8.379,-5.441 13.573,-6.345 m 85.901,-50.257 c 0.479,-0.558 0.999,-1.092 1.56,-1.601 m -5.382,8.084 c 0.962,-2.366 2.168,-4.557 3.822,-6.483 m -5.96,13.031 c 0.632,-2.27 1.295,-4.475 2.138,-6.548 m 295.119,-155.723 c 6.187,-7.547 13.444,-14.101 24.647,-18.624 M -569.98,436.956 c 1.853,-2.427 3.758,-4.662 5.887,-6.525 M -4.356,171.405 C -0.075,163.8 3.547,155.676 8.903,150.302 m -640.687,329.402 c 1.17,-1.269 2.405,-2.518 3.859,-3.687 m 527.532,-276.714 c 5.237,0.012 10.505,0.114 15.752,0.195 m -543.284,276.519 c 1.764,-1.395 3.646,-2.62 5.646,-3.674 m 250.333,-127.09 c -3.353,4.897 -7.844,8.42 -13.472,10.571 m 33.152,-56.38 c 5.336,-5.212 11.754,-8.753 18.928,-11.179 m -27.243,22.501 c 2.124,-4.223 4.896,-7.997 8.315,-11.322 M -63.491,199.426 c -6.912,0.248 -14.007,0.183 -21.15,0.072 m -537.638,272.845 c 2.995,-1.605 5.849,-2.633 8.96,-3.649 M 8.903,150.302 c 14.876,-14.927 42.181,-17.596 61.819,-18.864 m -645.469,312.068 c -0.812,1.122 -1.642,2.249 -2.504,3.369 m -2.563,3.162 c -0.14,0.162 -0.277,0.326 -0.418,0.487 M -4.356,171.405 c -5.105,10.253 -12.884,17.411 -23.337,21.475 m -547.054,250.626 c 1.625,-2.246 3.178,-4.468 4.767,-6.55 m 455.608,-237.381 c 4.606,-0.215 9.277,-0.283 13.979,-0.272 m -266.859,134.542 c -1.043,4.061 -2.387,7.916 -4.694,11.408 m -113.973,67.535 c -4.864,3.044 -11.27,4.829 -18.387,5.989 m -147.358,70.359 c 7.266,-5.3 20.664,-17.375 29.36,-20.513 M -28.299,150.01 C -9.527,131.81 25.84,131.576 49.8,130.744 m -697.855,356.223 c -1.068,0.779 -2.249,1.511 -3.609,2.169 m 70.285,-52.354 c 1.973,-2.454 3.965,-4.692 6.1,-6.514 m 0,0 c 4.144,-3.485 9.015,-5.613 14.613,-6.384 m 0,0 c 12.683,-2.739 29.685,-2.864 43.494,-5.52 m 16.713,-6.069 c -4.305,2.968 -10.145,4.807 -16.713,6.069 m 31.031,-32.033 c 0.629,-2.282 1.304,-4.487 2.164,-6.546 m 3.993,-6.474 c 0.588,-0.692 1.246,-1.301 1.974,-1.826 m -5.967,8.3 c 0.998,-2.393 2.253,-4.589 3.993,-6.474 m 222.549,-96.796 c -29.819,9.744 -66.879,3.092 -94.233,11.126 m 136.81,-44.455 c 5.431,-7.34 9.959,-14.49 15.629,-20.813 m -185.911,98.208 c 1.046,-3.75 2.424,-7.55 4.562,-11.319 m -211.424,141.057 c -1.106,1.266 -2.26,2.498 -3.471,3.678 m 105.289,-54.584 c -0.955,2.241 -2.135,4.426 -3.661,6.495 M -41.856,171.312 c 4.348,-7.726 8.035,-15.948 13.557,-21.302 m -563.242,299.771 c -0.153,0.179 -0.306,0.36 -0.461,0.538 m 5.627,-7.025 c -0.846,1.116 -1.708,2.239 -2.591,3.356 m -6.507,7.347 c -1.334,1.299 -2.737,2.534 -4.235,3.669 m 10.742,-11.016 c -0.835,1.055 -1.691,2.101 -2.575,3.131 m 97.696,-43.873 c -1.824,2.604 -4.029,4.733 -6.614,6.387 m 400.066,-212.992 c -4.603,0.189 -9.278,0.252 -13.979,0.272 m -257.294,98.669 c 5.699,-5.073 12.48,-8.395 19.998,-10.603 m -253.836,173.683 c -2.688,1.482 -5.131,2.667 -7.385,3.654 m 0,0 c -3.503,1.534 -6.564,2.617 -9.415,3.645 m 22.596,-10.957 c -1.839,1.371 -3.771,2.59 -5.796,3.658 M -63.288,192.047 c -10.896,5.034 -23.681,6.706 -37.105,7.256 M -487.924,392.88 c -0.631,2.189 -1.345,4.385 -2.26,6.533 m 12.174,-27.928 c 8.693,-6.913 23.721,-8.201 38.935,-9.577 m -47.066,24.423 c -0.589,2.137 -1.145,4.338 -1.783,6.549 M -41.856,171.312 c -4.711,9.663 -11.855,16.575 -21.432,20.735 m -328.639,151.339 c -2.544,4.551 -6.032,8.076 -10.465,10.572 m 165.482,-88.075 c -6.178,4.666 -13.019,8.211 -20.525,10.632 m 42.577,-33.329 c -0.256,0.345 -0.513,0.69 -0.773,1.037 m 16.402,-21.85 c 7.132,-7.956 16.08,-14.602 30.916,-18.678 m -212.265,105.567 c 2.335,-4.132 5.306,-7.805 8.912,-11.018 m 203.353,-94.549 c 16.999,-4.67 36.705,-4.049 53.941,-4.12 m -273.496,132.487 c -0.961,3.979 -2.111,7.79 -4.059,11.324 m 167.198,-88.29 c -3.479,3.659 -7.457,7.28 -12.181,10.787 m -349.465,177.411 c 1.7,-2.242 3.341,-4.453 4.996,-6.512 m 193.511,-104.72 c 0.897,-3.712 1.638,-7.57 2.728,-11.481 m 169.509,-76.358 c -2.71,3.61 -5.661,7.26 -9.098,10.873 m -177.663,98.862 c -9.474,5.415 -23.144,6.725 -36.683,7.95 m -188.783,106.67 c -1.785,1.225 -3.569,2.452 -5.35,3.673 m 224.863,-142.704 c 0.86,-3.729 1.69,-7.577 2.983,-11.454 M -78.27,169.758 c 4.241,-7.776 8.075,-15.76 14.021,-20.629 m -347.569,191.84 c -1.923,4.509 -4.747,8.127 -8.474,10.856 m -187.413,102.039 c -1.285,1.301 -2.618,2.541 -4.017,3.684 m 18.318,-21.049 c 2.018,-2.45 4.032,-4.669 6.121,-6.455 m 302.23,-153.669 c -26.398,8.944 -57.748,4.713 -82.687,10.363 m -219.543,143.306 c 3.953,-3.355 8.598,-5.474 13.934,-6.357 m 71.118,-37.901 c 0.656,-2.284 1.386,-4.485 2.353,-6.541 m -127.98,89.333 c 1.798,-1.235 3.597,-2.462 5.393,-3.676 m 18.158,-14.727 c -1.096,1.267 -2.227,2.504 -3.398,3.689 M -226.54,221.697 c 10.228,-10.908 26.037,-17.516 40.694,-19.75 m -219.516,116.146 c 1.224,-4.007 3.014,-7.687 5.37,-11.041 m -95.273,65.738 c 0.644,-0.613 1.335,-1.168 2.074,-1.667 m 72.899,-19.298 c -7.133,5.443 -17.792,7.672 -29.073,9.207 m -149.136,81.944 c -0.903,1.166 -1.819,2.341 -2.754,3.512 m 108.064,-75.365 c 9.97,-7.067 27.525,-7.874 43.826,-10.091 m -54.668,31.304 c -0.623,2.184 -1.329,4.379 -2.242,6.537 m -126.933,73.378 c -1.799,1.235 -3.595,2.461 -5.384,3.667 m 122.059,-64.144 c -4.609,3.397 -9.941,5.444 -15.995,6.139 m -71.129,31.501 c -0.216,0.254 -0.432,0.508 -0.65,0.761 m -34.285,25.743 c -1.847,1.246 -3.687,2.47 -5.515,3.658 m 42.852,-33.088 c -0.786,0.983 -1.585,1.961 -2.402,2.926 M -64.249,149.129 c 25.65,-20.999 68.523,-17.327 99.132,-19.104 m -544.817,275.348 c -1.687,2.28 -3.825,4.439 -6.599,6.401 m -56.816,11.913 c 12.047,-2.857 27.872,-3.108 40.821,-5.774 m 32.65,-38.668 c 1.122,-2.388 2.572,-4.573 4.613,-6.455 m -11.01,26.083 c -0.943,2.229 -2.116,4.414 -3.659,6.5 m 267.901,-163.311 c 5.272,-7.232 9.728,-14.217 15.493,-20.365 m -24.507,31.572 c -3.464,3.811 -7.44,7.606 -12.232,11.304 m -145.066,64.974 c -0.919,3.982 -1.88,7.826 -3.473,11.422 m 169.785,-98.907 c -0.246,0.337 -0.493,0.676 -0.743,1.015 m 147.023,-53.175 c -24.189,14.381 -61.233,7.647 -90.093,12.045 M -78.27,169.758 c -3.8,8.839 -9.628,15.554 -17.483,20.144 m -304.239,117.15 c 2.87,-4.24 6.183,-7.691 9.867,-10.504 m 126.846,-31.975 c -6.529,5.15 -13.786,9.084 -21.774,11.802 m 42.277,-33.298 c -2.487,3.369 -5.176,6.786 -8.271,10.192 m -398.835,229.948 c -2.11,1.286 -4.197,2.494 -6.259,3.62 m 44.419,-29.289 c -1.673,1.32 -3.411,2.545 -5.214,3.677 m 226.811,-164.677 c 6.468,-4.94 14.069,-7.925 22.385,-9.81 m -136.293,105.598 c 0.633,-2.216 1.189,-4.418 1.802,-6.55 m -96.27,57.19 c 1.732,-2.239 3.416,-4.436 5.097,-6.477 m -50.703,43.077 c -1.94,1.26 -3.866,2.478 -5.775,3.641 m 27.417,-18.315 c 1.847,-1.249 3.692,-2.477 5.529,-3.677 m -39.205,25.612 c -1.488,0.812 -2.965,1.59 -4.423,2.299 m 6.89,-9.699 c -1.788,1.261 -3.566,2.477 -5.322,3.628 M -510.022,372.3 c 0.418,-0.416 0.87,-0.797 1.353,-1.141 m 394.412,-204.33 c -3.852,7.504 -7.766,15.201 -13.885,20.053 m -141.497,54.082 c 5.004,-6.874 9.398,-13.525 14.964,-19.421 m 140.418,-54.714 c 3.001,-8.848 8.111,-15.533 15.327,-20.058 m -172.06,96.032 c -2.445,3.293 -5.065,6.625 -8.053,9.939 m -385.761,233.912 c -1.585,0.912 -3.14,1.752 -4.65,2.482 m 123.706,-71.564 c -11.558,2.806 -25.861,3.467 -37.294,5.956 M -98.93,146.771 c 24.671,-15.95 63.069,-14.479 98.718,-18.155 m -424.955,186.626 c 1.622,-3.964 3.765,-7.608 6.429,-10.932 m -186.035,131.836 c 2.237,-2.468 4.437,-4.67 6.628,-6.391 m 283.28,-153.026 c -21.794,7.051 -46.295,5.456 -67.339,8.882 M -517.301,385.3 c 0.689,-2.268 1.466,-4.468 2.504,-6.541 m -144.199,104.306 c -1.971,1.293 -3.911,2.497 -5.808,3.589 m 395.165,-245.69 c -0.444,0.611 -0.896,1.224 -1.351,1.839 m 142.848,-55.921 c -20.79,16.48 -51.754,11.972 -76.048,13.791 M -643.727,472.14 c -1.628,1.226 -3.265,2.45 -4.905,3.657 M 60.029,109.715 C 42.52,122.476 20.826,126.447 -0.212,128.616 m -610.103,313.95 c 1.882,-2.233 3.724,-4.413 5.542,-6.42 m 6.628,-6.391 c 4.32,-3.392 9.354,-5.467 15.103,-6.227 m 303.999,-170.786 c -3.673,4.072 -7.902,8.116 -13.051,12.024 m 37.419,-43.223 c 12.853,-13.611 32.337,-19.51 50.485,-20.87 m -314.973,191.179 c 0.639,-2.214 1.213,-4.413 1.862,-6.552 m -1.862,6.552 c -0.629,2.183 -1.323,4.378 -2.223,6.543 m 0,0 c -0.924,2.222 -2.064,4.409 -3.57,6.514 m -6.317,6.428 c -4.181,3.228 -9.005,5.306 -14.475,6.235 m 20.792,-12.663 c -1.617,2.26 -3.668,4.422 -6.317,6.428 m -102.733,53.468 c 1.709,-1.278 3.379,-2.509 5.002,-3.677 m 13.211,-12.161 c -0.326,0.368 -0.653,0.735 -0.982,1.099 m 108.106,-78.907 c 9.668,-7.502 28.061,-8.297 44.245,-11.145 m -184.208,115.783 c -1.682,1.239 -3.367,2.458 -5.042,3.64 m 43.359,-36.871 c -1.06,1.259 -2.135,2.535 -3.223,3.806 m 0,0 c -0.744,0.87 -1.496,1.736 -2.255,2.595 m 323.699,-184.201 c -6.83,5.279 -14.421,9.267 -22.771,11.963 m -199.932,102.03 c 1.172,-2.342 2.685,-4.52 4.775,-6.459 m -110.235,81.459 c -1.287,1.297 -2.601,2.537 -3.944,3.689 m 0,0 c -1.549,1.296 -3.151,2.522 -4.803,3.68 m 12.229,-11.062 c -1.142,1.265 -2.301,2.503 -3.482,3.693 M -418.738,304.31 c 3.305,-4.166 7.078,-7.455 11.234,-10.059 m -31.46,55.499 c -6.659,6.42 -15.146,9.842 -25.46,10.264 m 56.92,-65.763 c 7.407,-4.641 16.018,-7.128 25.3,-8.64 m -256.674,182.864 c -1.601,1.212 -3.218,2.437 -4.849,3.665 m 4.849,-3.665 c 1.649,-1.249 3.275,-2.476 4.872,-3.67 m 202.11,-126.318 c -1.491,4.073 -3.583,7.874 -7.068,11.263 m 10.264,-22.918 c -0.973,4.038 -1.842,7.957 -3.196,11.655 m 3.196,-11.655 c 0.914,-3.79 1.928,-7.682 3.533,-11.59 m -183.676,114.151 c 4.486,-3.345 9.687,-5.382 15.603,-6.109 M 13.606,107.598 c -16.558,12.724 -39.196,18.258 -59.314,20.763 m -501.311,282.571 c -4.008,3.105 -8.58,5.215 -13.716,6.33 m 123.458,-115.55 c 3.94,-4.256 8.431,-7.437 13.345,-9.851 m -25.212,32.674 c -1.114,4.123 -1.982,8.109 -3.241,11.887 m 290.719,-153.419 c -15.557,18.305 -46.156,15.891 -67.406,17.259 m -304.434,184.564 c 0.67,-2.246 1.47,-4.443 2.605,-6.548 m 106.969,-86.417 c 8.83,-4.339 19.021,-6.217 29.819,-7.448 m -58.272,52.009 c -1.387,4.168 -3.257,8.082 -6.47,11.646 m 9.711,-23.533 c 1.035,-3.833 2.291,-7.784 4.277,-11.793 m -86.034,65.536 c 1.314,-2.522 3.028,-4.676 5.144,-6.463 M -150.02,162.926 c 3.838,-9.019 10.019,-15.445 18.541,-19.276 M 36.322,87.218 c -7.481,7.297 -14.9,14.374 -22.716,20.38 m -686.925,378.827 c -1.66,0.978 -3.337,1.888 -5.035,2.711 M -131.479,143.65 c 22.84,-11.607 55.316,-11.498 85.771,-15.289 m -237.036,92.844 c 13.812,-14.666 34.312,-19.696 53.672,-20.943 m -438.723,282.604 c -1.821,1.268 -3.661,2.462 -5.524,3.559 m 374.41,-244.015 c -2.622,3.581 -5.436,7.202 -8.683,10.785 m 9.456,-11.847 c 5.155,-7.118 9.646,-14.042 15.392,-20.143 m -176.111,126.863 c -6.137,6.611 -14.095,10.385 -23.875,11.322 m -156.463,97.922 c -1.216,1.229 -2.434,2.457 -3.655,3.678 m -20.061,18.267 c -1.613,1.261 -3.242,2.466 -4.886,3.609 m 360.203,-229.671 c -3.626,4.001 -7.794,7.952 -12.839,11.745 m 0,0 c -6.423,4.905 -13.512,8.684 -21.266,11.339 m -304.866,188.389 c -1.262,1.236 -2.53,2.457 -3.802,3.662 m 14.809,-14.699 c -1.211,1.225 -2.423,2.453 -3.637,3.681 m -3.655,3.678 c -1.235,1.235 -2.473,2.462 -3.715,3.678 m -7.75,7.318 c -1.378,1.247 -2.764,2.466 -4.16,3.651 m 22.917,-22.006 c 1.22,-1.235 2.44,-2.466 3.659,-3.688 m -26.576,25.694 c -1.467,1.248 -2.946,2.456 -4.436,3.62 M -150.02,162.926 c -3.564,6.894 -6.858,14.443 -11.646,20.077 m -363.719,188.479 c 9.224,-7.556 27.205,-8.765 42.655,-12.092 m 141.033,-83.111 c -17.007,5.842 -35.456,6.2 -52.416,8.134 m -131.644,87.402 c 0.127,-0.109 0.242,-0.227 0.372,-0.333 m 80.518,-58.74 c 1.993,-4.03 4.523,-7.706 7.59,-11.03 m -193.009,146.622 c 0.701,-0.697 1.402,-1.39 2.103,-2.079 m 330.047,-204.907 c -0.256,0.353 -0.513,0.707 -0.773,1.062 m -238.38,155.532 c -0.861,2.214 -1.958,4.403 -3.462,6.534 m -109.614,63.854 c -1.31,1.24 -2.625,2.46 -3.948,3.656 m 30.519,-29.966 c 2.321,-2.195 4.651,-4.313 6.996,-6.326 M 36.322,87.218 C 43.366,80.349 50.471,73.296 58.02,66.77 m -598.771,337.706 c -1.573,2.23 -3.588,4.396 -6.268,6.456 m 11.771,-19.544 c -0.568,2.185 -1.195,4.381 -2.041,6.554 m 2.041,-6.554 c 0.575,-2.211 1.1,-4.409 1.742,-6.562 m -98.391,65.117 c 0.537,-0.539 1.074,-1.074 1.611,-1.609 m 69.551,-31.072 c -10.037,2.732 -22.226,3.754 -32.505,6.022 m -23.558,12.41 c 2.629,-2.254 5.277,-4.371 7.955,-6.301 m -19.34,16.862 c 1.461,-1.435 2.923,-2.85 4.389,-4.235 m 153.703,-118.746 c -1.175,4.227 -1.973,8.264 -3.095,12.08 m 7.85,-24.183 c 2.282,-4.237 5.174,-8.062 8.676,-11.473 m -207.236,172.096 c -1.283,1.24 -2.576,2.454 -3.88,3.633 m 341.251,-234.062 c 5.202,-7.261 9.802,-14.353 15.693,-20.569 m -159.259,102.478 c 1.078,-3.88 2.484,-7.921 4.755,-12.103 m -80.869,66.709 c 1.386,-2.31 3.094,-4.323 5.125,-6.037 m 355.807,-212.726 c -3.841,6.534 -6.995,14.25 -11.341,20.552 m -276.572,155.685 c -1.256,4.279 -2.926,8.285 -6.012,11.978 m -170.659,109.846 c -1.127,1.225 -2.257,2.448 -3.39,3.666 m -6.98,7.314 c -1.215,1.233 -2.437,2.447 -3.669,3.636 M -456.66,299.698 c 4.827,-4.628 10.368,-7.776 16.418,-10.005 m 74.373,-14.596 c -12.198,5.016 -25.079,6.731 -37.568,8.084 m -75.761,64.151 c -6.21,7.033 -14.308,11.162 -24.296,12.385 M 10.357,64.605 C 20.14,56.032 30.97,49.387 42.847,44.67 m -696.094,416.174 c -1.145,1.23 -2.294,2.452 -3.447,3.664 m 216.452,-174.815 c 11.005,-4.057 23.687,-5.091 36.805,-6.512 m -253.257,181.327 c -1.172,1.232 -2.349,2.449 -3.533,3.65 M -36.478,107.084 c -13.376,10.411 -30.23,16.298 -46.664,19.474 m -243.769,115.344 c -2.643,3.671 -5.455,7.378 -8.676,11.033 m -215.47,138.069 c -0.595,2.191 -1.229,4.387 -2.1,6.564 m 0,0 c -0.883,2.208 -2.015,4.398 -3.594,6.547 m 5.694,-13.111 c 0.599,-2.201 1.164,-4.398 1.89,-6.568 m -7.584,19.679 c -1.628,2.216 -3.745,4.386 -6.563,6.49 m 0,0 c -4.039,3.063 -8.593,5.199 -13.662,6.406 m 36.438,-45.6 c 8.621,-6.798 23.644,-8.515 37.044,-11.694 m -168.444,119.311 c -1.514,1.25 -3.047,2.443 -4.601,3.577 M -12.561,85.608 C -5.155,78.473 2.347,71.218 10.357,64.605 m -559.524,319.831 c 0.743,-2.222 1.656,-4.415 2.962,-6.556 m -88.841,63.62 c 2.21,-2.196 4.442,-4.308 6.703,-6.307 m -14.726,14.635 c 0.63,-0.675 1.259,-1.347 1.89,-2.015 m 0,0 c 0.527,-0.559 1.055,-1.113 1.583,-1.666 m 0,0 c 1.51,-1.579 3.025,-3.131 4.55,-4.647 m 6.703,-6.307 c 2.429,-2.319 5.029,-4.408 7.8,-6.267 m -29.314,28.252 c 1.128,-1.224 2.253,-2.448 3.378,-3.669 m 0,0 c 1.136,-1.233 2.272,-2.462 3.41,-3.681 m -38.743,36.314 c -1.784,1.09 -3.593,2.101 -5.442,2.994 m 110.278,-72.125 c -8.813,2.522 -19.173,3.761 -28.23,5.901 m 445.258,-282.58 c 22.104,-7.905 50.758,-8.741 76.806,-13.774 m -537.401,302.368 c 4.01,-2.807 9.388,-4.608 15.337,-6.014 M -12.561,85.608 c -7.906,7.619 -15.71,15.088 -23.917,21.476 M -541.08,371.843 c 0.176,-0.148 0.361,-0.288 0.542,-0.432 m -136.001,111.194 c -1.73,1.262 -3.487,2.444 -5.273,3.537 m 355.287,-244.777 c -0.128,0.179 -0.256,0.358 -0.386,0.537 m 130.297,-62.233 c -12.288,17.814 -43.013,18.998 -61.384,20.413 m -409.778,275.345 c -1.374,1.24 -2.761,2.444 -4.162,3.601 m 324.384,-214.726 c -5.582,4.444 -11.687,8.043 -18.315,10.795 m 180.596,-115.98 c 5.765,-9.647 14.208,-15.909 25.325,-18.785 m -150.884,80.464 c 13.758,-14.517 33.635,-19.236 52.834,-20.714 m -77.589,52.853 c -3.426,3.887 -7.315,7.712 -11.967,11.367 m 114.098,-85.49 c -11.333,17.128 -35.906,19.183 -54.128,20.894 m 203.667,-94.644 c -10.292,8.715 -22.111,14.853 -35.459,18.412 m -218.852,96.464 c 13.421,-13.87 32.062,-18.487 50.644,-20.232 m 168.208,-76.232 c -21.91,6.378 -47.024,8.355 -68.011,14.026 m -201.971,135.682 c -8.547,4.233 -17.367,6.605 -26.115,8.225 m 194.052,-124.02 c -4.278,6.52 -7.512,14.587 -12.035,21.425 m -140.126,83.985 c -4.85,4.093 -10.108,7.555 -15.776,10.385 m -102.28,50.893 c 1.029,-3.935 2.401,-8.057 4.702,-12.36 m 265.515,-154.328 c 8.067,-11.181 19.412,-17.81 34.034,-19.887 m -307.127,198.583 c -1.21,4.336 -2.878,8.377 -6.096,12.112 M -61.71,84.929 c 7.397,-7.075 14.909,-14.232 22.997,-20.742 m -323.9,187.596 c -3.188,3.774 -6.757,7.481 -10.969,11.014 M -38.713,64.187 C -27.399,54.662 -14.826,47.55 -0.993,42.851 M -61.71,84.929 c -7.357,7.036 -14.608,13.983 -22.207,20.133 m -403.019,206.653 c 2.484,-4.676 5.694,-8.859 9.633,-12.548 m -14.335,24.908 c -1.102,4.221 -1.821,8.227 -2.876,12.008 m -6.096,12.112 c -6.992,7.628 -16.085,11.944 -27.28,12.946 m -36.63,22.993 c 0.793,-2.197 1.785,-4.387 3.18,-6.563 m -108.609,90.359 c -1.128,1.225 -2.264,2.432 -3.412,3.614 m 104.693,-74.25 c -0.884,2.211 -2.008,4.405 -3.597,6.569 m -101.096,67.681 c -1.195,1.23 -2.402,2.435 -3.623,3.607 m 10.323,-10.859 c -1.089,1.227 -2.185,2.441 -3.288,3.638 m 103.417,-77.215 c 0.616,-2.192 1.22,-4.389 2.012,-6.581 m -95.796,72.862 c 1.045,-1.22 2.09,-2.439 3.136,-3.656 m 0,0 c 1.055,-1.229 2.112,-2.453 3.171,-3.669 m 62.33,-32.963 c -7.922,2.435 -17.14,3.728 -25.406,5.754 m -59.899,52.689 c -1.289,1.236 -2.595,2.434 -3.919,3.589 m 20.587,-21.744 c -1.046,1.219 -2.094,2.437 -3.144,3.649 m 0,0 c -1.062,1.224 -2.129,2.44 -3.201,3.647 m 87.845,-53.92 c -3.817,2.942 -8.105,5.054 -12.863,6.336 m -40.521,11.699 c 4.067,-2.762 9.358,-4.533 15.115,-5.945 m 50.553,-31.747 c -0.62,2.203 -1.264,4.4 -2.136,6.579 m -121.56,88.498 c -1.926,1.23 -3.896,2.359 -5.926,3.344 m 342.113,-248.615 c -2.65,3.75 -5.426,7.538 -8.572,11.262 m -318.29,226.957 c -1.415,1.233 -2.851,2.418 -4.314,3.54 m 129.701,-111.212 c 7.069,-5.547 17.455,-7.572 27.626,-9.927 m 173.962,-120.778 c -0.037,0.053 -0.075,0.106 -0.113,0.158 m -207.299,137.05 c 1.294,-2.069 2.845,-3.908 4.653,-5.52 m 202.759,-131.688 c 5.086,-7.202 9.731,-14.255 15.7,-20.425 m -234.037,183.925 c -1.618,2.204 -3.732,4.378 -6.551,6.509 m -73.08,36.894 c 0.373,-0.422 0.746,-0.845 1.12,-1.263 m -3.233,3.668 c 0.703,-0.806 1.407,-1.608 2.113,-2.405 m 95.209,-75.215 c 0.379,-0.339 0.769,-0.668 1.171,-0.983 m 99.354,-82.959 c 12.386,-3.419 26.442,-4.065 40.689,-6.702 M -685.217,482.28 c -1.635,1.254 -3.306,2.422 -5.011,3.512 m 39.452,-39.789 c 1.539,-1.72 3.091,-3.405 4.657,-5.05 m 168.816,-141.786 c 6.126,-5.607 13.297,-8.892 21.141,-11.058 M -639.75,434.652 c 2.351,-2.296 4.867,-4.377 7.55,-6.245 m -13.919,12.546 c 2.089,-2.194 4.207,-4.306 6.369,-6.301 m 369.114,-256.155 c 4.59,-6.933 7.876,-14.912 12.456,-21.297 m 0,0 c 8.747,-12.193 27.436,-17.75 40.889,-21.218 m 61.066,-16.658 c -18.665,8.032 -41.181,11.532 -61.066,16.658 m 88.789,-34.888 c -8.205,7.659 -17.446,13.736 -27.723,18.23 m -533.827,359.035 c -1.329,1.219 -2.682,2.393 -4.062,3.512 M 62.357,2.607 C 48.85,10.75 34.554,17.246 19.469,22.094 m -127.381,59.568 c -6.906,6.693 -13.655,13.38 -20.59,19.432 m -575.803,387.634 c -0.251,0.134 -0.496,0.278 -0.749,0.408 m 6.309,-3.795 c -1.8,1.235 -3.653,2.365 -5.56,3.387 m 99.54,-72.421 c -7.007,2.449 -15.234,3.807 -22.824,5.7 m -58.754,52.786 c -1.218,1.226 -2.453,2.415 -3.709,3.566 m -4.062,3.512 c -1.509,1.225 -3.051,2.386 -4.631,3.47 m 114.662,-88.296 c -0.816,2.206 -1.855,4.393 -3.312,6.546 M -51.893,42.438 C -30.168,34.225 -4.052,29.476 19.469,22.094 m -601.585,368.385 c -0.565,2.196 -1.16,4.39 -1.967,6.566 m -72.478,43.366 c 2.03,-2.188 4.098,-4.298 6.223,-6.293 m 7.513,-6.228 c 4.191,-2.726 9.529,-4.459 15.236,-5.883 m 40.194,-18.416 c -1.484,2.195 -3.408,4.353 -5.97,6.459 m -71.116,39.411 c 0.769,-0.918 1.542,-1.831 2.317,-2.738 m -20.745,24.493 c -1.131,1.22 -2.276,2.412 -3.434,3.577 m 36.005,-40.675 c 2.309,-2.325 4.814,-4.401 7.513,-6.228 M -86.137,62.033 c 10.354,-8.494 21.768,-15.025 34.244,-19.595 m -328.613,195.87 c -0.102,0.145 -0.204,0.291 -0.307,0.436 m -292.691,221.635 c -1.01,1.217 -2.024,2.426 -3.042,3.625 m 0,0 c -1.036,1.221 -2.078,2.43 -3.128,3.623 m 0,0 c -1.07,1.214 -2.146,2.415 -3.235,3.589 m 89.544,-61.166 c -3.358,2.81 -7.157,4.896 -11.4,6.257 m -62.75,36.806 c 1.008,-1.223 2.019,-2.441 3.034,-3.652 m -6.029,7.292 c -0.997,1.212 -1.994,2.421 -2.994,3.626 m 2.994,-3.626 c 0.998,-1.214 1.995,-2.429 2.995,-3.64 m 268.71,-192.837 c -4.069,3.736 -8.446,7.024 -13.134,9.865 m -20.691,8.746 c -14.815,4.19 -29.816,5.125 -43.046,8.591 m -104.634,96.421 c 0.709,-2.211 1.588,-4.408 2.826,-6.576 m 165.545,-107.182 c -6.716,4.054 -13.683,6.763 -20.691,8.746 m -144.854,98.436 c 1.108,-2.005 2.457,-3.812 4.045,-5.421 m 63.11,-55.777 c 1.952,-4.885 4.629,-9.333 8.031,-13.345 m -159.866,143.943 c 0.261,-0.304 0.52,-0.609 0.782,-0.911 m 0,0 c 1.588,-1.84 3.193,-3.645 4.821,-5.401 M -502.298,302.78 c 7.205,-8.411 16.381,-12.619 26.622,-15.302 m -48.936,63.126 c -7.903,6.831 -22.115,9.345 -31.299,12.097 M -107.912,81.662 c 6.977,-6.762 14.117,-13.523 21.775,-19.629 m -486.151,308.76 c 4.34,-3.898 10.15,-6.227 16.377,-8.092 m 175.405,-124.393 c 5.046,-7.175 9.822,-14.14 16.103,-20.17 m -209.036,153.764 c 0.371,-0.383 0.754,-0.753 1.151,-1.109 m 183.333,-121.089 c -2.909,3.597 -6.119,7.151 -9.85,10.572 m -117.794,78.631 c -1.511,4.166 -3.797,8.053 -8.013,11.697 m 253.976,-172.107 c -10.112,15.273 -28.762,18.735 -45.611,20.793 m -48.156,18.848 c 13.145,-12.623 30.611,-16.705 48.156,-18.848 m -265.869,191.189 c 0.564,-2.196 1.105,-4.395 1.806,-6.58 m 199.497,-145.155 c -2.559,3.635 -5.197,7.319 -8.142,10.96 M -513.7,327.627 c -0.882,3.976 -1.611,7.729 -2.899,11.28 m 2.899,-11.28 c 0.807,-3.642 1.752,-7.471 3.371,-11.502 m -162.538,130.022 c 0.162,-0.206 0.326,-0.408 0.489,-0.612 M -153.217,76.799 c -6.854,6.425 -13.488,12.997 -20.212,19.159 m -501.783,353.208 c 0.778,-1.013 1.559,-2.022 2.345,-3.019 m 249.469,-189.553 c -3.372,3.471 -7.172,6.871 -11.608,10.126 m -251.185,196.92 c -0.944,1.214 -1.894,2.415 -2.853,3.601 m 69.218,-51.514 c -6.138,2.506 -13.098,3.951 -19.684,5.717 m 39.468,-24.819 c -0.86,2.182 -1.939,4.349 -3.444,6.504 m 507.573,-363.3 c 16.822,-6.459 35.453,-11.955 52.824,-18.6 m -480.823,282.646 c 17.004,-20.776 44.621,-16.545 71.383,-27.356 m 17.523,-9.799 c -5.394,3.999 -11.235,7.265 -17.523,9.799 m 45.287,-40.154 c 0.155,-0.215 0.31,-0.43 0.465,-0.645 m -202.696,173.808 c -3.104,2.617 -6.555,4.683 -10.353,6.199 m 91.185,-104.897 c 1.364,-2.454 2.94,-4.771 4.729,-6.955 m -165.132,163.366 c -0.983,1.215 -1.976,2.409 -2.98,3.583 m 99.568,-93.818 c 1.34,-2.083 2.904,-3.978 4.69,-5.686 m 0,0 c 0.287,-0.272 0.58,-0.53 0.873,-0.787 m -11.001,19.55 c -0.648,2.196 -1.294,4.376 -2.148,6.542 m -91.982,74.199 c -1.036,1.211 -2.085,2.396 -3.15,3.55 m 161.852,-152.231 c 1.042,-3.592 2.454,-7.358 4.681,-11.313 m -7.13,21.378 c -0.843,3.595 -1.792,6.996 -3.445,10.22 M 0,0 c -13.791,8.218 -28.153,15.295 -43.089,21.229 m -505.813,331.812 c -7.329,4.937 -16.155,6.863 -24.366,9.909 m -13.625,7.583 c 4.017,-3.525 8.708,-5.759 13.625,-7.583 m -99.11,82.585 c 1.549,-1.952 3.118,-3.866 4.72,-5.716 m -30.94,38.09 c -1.246,1.221 -2.518,2.392 -3.82,3.508 m 40.648,-47.902 c 2.228,-2.357 4.685,-4.431 7.372,-6.22 m 50.912,-24.166 c -1.496,2.144 -3.422,4.276 -5.987,6.399 m -58.185,30.291 c 1.909,-2.206 3.867,-4.316 5.888,-6.304 m -18.935,22.913 c 0.909,-1.21 1.818,-2.421 2.728,-3.628 m 23.579,-25.505 c 4.247,-2.699 9.436,-4.389 14.888,-5.851 m -41.195,34.984 c -0.905,1.205 -1.813,2.408 -2.722,3.607 m 144.211,-117.607 c -2.422,4.407 -5.65,7.944 -9.686,10.613 m -46.858,30.492 c 0.834,-2.157 1.877,-4.332 3.304,-6.527 m 297.148,-220.293 c 8.362,-11.356 25.899,-17.03 38.427,-20.93 M -712.13,488.192 c -0.602,0.326 -1.208,0.646 -1.824,0.944 m 30.527,-29.101 c -0.917,1.209 -1.838,2.413 -2.764,3.605 M -153.217,76.799 c 7.087,-6.643 14.412,-13.124 22.32,-18.834 m -67.654,57.27 c -17.084,9.576 -38.959,14.518 -58.33,20.548 m 83.452,-39.825 c -7.572,7.546 -15.946,13.972 -25.122,19.277 m -503.867,366.182 c -1.416,1.213 -2.87,2.356 -4.363,3.421 m 11.607,-10.464 c -1.122,1.216 -2.262,2.397 -3.424,3.535 M -406.777,235.72 c 5.089,-7.052 10.123,-13.787 16.863,-19.581 m 0,0 c 13.93,-10.467 29.524,-16.44 46.782,-17.92 m -363.649,286.619 c -1.725,1.23 -3.504,2.357 -5.349,3.354 M -307.803,177.97 c -8.101,12.089 -19.878,18.838 -35.329,20.249 m 35.329,-20.249 c 4.53,-6.949 7.847,-14.944 12.495,-21.257 m -119.239,89.58 c -2.672,3.455 -5.559,6.912 -8.851,10.301 m -174.496,133.489 c 0.639,-2.166 1.283,-4.349 2.134,-6.55 m 59.989,-51.325 c 0.751,-3.196 1.427,-6.547 2.449,-10.065 M -677.977,452.8 c 0.918,-1.218 1.84,-2.429 2.765,-3.634 M -130.897,57.965 c 10.8,-7.69 22.462,-13.736 34.984,-18.136 m -311.329,196.536 c -2.353,3.267 -4.73,6.596 -7.305,9.928 m 489.593,-50.476 0,1.032"
             style="fill:none;stroke:#0f0e0e;stroke-width:1;stroke-linecap:butt;stroke-linejoin:miter;stroke-miterlimit:10;stroke-dasharray:none;stroke-opacity:1"
             id="path22"
             inkscape:connector-curvature="0" /></g></g></g></g><WCB
     layer="0"
     node="0"
     lastpath="0"
     lastpathnc="0"
     lastknownposx="0.0"
     lastknownposy="0.0"
     pausedposx="0.0"
     pausedposy="0.0" /></svg>